<svg xmlns="http://www.w3.org/2000/svg" xmlns:xlink="http://www.w3.org/1999/xlink" width="1920" height="70" viewBox="0 0 1920 70">
  <defs>
    <linearGradient id="linear-gradient" x1="0.5" y1="1" x2="0.5" gradientUnits="objectBoundingBox">
      <stop offset="0"/>
      <stop offset="1" stop-color="#fff"/>
    </linearGradient>
    <linearGradient id="linear-gradient-2" x1="0.5" y1="1" x2="0.5" gradientUnits="objectBoundingBox">
      <stop offset="0" stop-color="#fff"/>
      <stop offset="1"/>
    </linearGradient>
  </defs>
  <g id="Group_5213" data-name="Group 5213" transform="translate(5306 7161)">
    <path id="Path_6526" data-name="Path 6526" d="M0,0H1920V70H0Z" transform="translate(-5306 -7161)" fill="#86bb00"/>
    <path id="Path_6527" data-name="Path 6527" d="M-380.95-5.777a6.231,6.231,0,0,1-.961,3.146,5.8,5.8,0,0,1-2.467,2.115A8.4,8.4,0,0,1-388,.234a6.7,6.7,0,0,1-5.3-2.191,9.048,9.048,0,0,1-1.934-6.187v-.844a10.328,10.328,0,0,1,.873-4.389,6.615,6.615,0,0,1,2.514-2.906,7.013,7.013,0,0,1,3.8-1.025,7.354,7.354,0,0,1,4.992,1.635,6.459,6.459,0,0,1,2.145,4.506h-4.1a3.056,3.056,0,0,0-.785-2.238,3.229,3.229,0,0,0-2.25-.68,2.457,2.457,0,0,0-2.25,1.148,7.381,7.381,0,0,0-.75,3.668v1.207a8.167,8.167,0,0,0,.686,3.9A2.509,2.509,0,0,0-388-2.988a3.159,3.159,0,0,0,2.168-.668,2.835,2.835,0,0,0,.8-2.121Zm9.076,4.406A4.072,4.072,0,0,1-375.26.234a3.993,3.993,0,0,1-3.158-1.213,5.1,5.1,0,0,1-1.072-3.486V-12.68h3.949v8.238a1.419,1.419,0,0,0,1.582,1.629,2.064,2.064,0,0,0,1.934-.973V-12.68h3.973V0h-3.7ZM-362.4-12.68l.129,1.488a4.36,4.36,0,0,1,3.621-1.723A3.21,3.21,0,0,1-355.4-11a4.22,4.22,0,0,1,3.727-1.91q3.855,0,3.961,4.664V0h-3.961V-8A2.417,2.417,0,0,0-352-9.422a1.4,1.4,0,0,0-1.2-.445,1.871,1.871,0,0,0-1.746,1.043l.012.164V0h-3.961V-7.98a2.541,2.541,0,0,0-.316-1.441,1.393,1.393,0,0,0-1.207-.445,1.894,1.894,0,0,0-1.734,1.043V0H-366.1V-12.68Zm24.252,11.309A4.072,4.072,0,0,1-341.533.234a3.993,3.993,0,0,1-3.158-1.213,5.1,5.1,0,0,1-1.072-3.486V-12.68h3.949v8.238a1.419,1.419,0,0,0,1.582,1.629,2.064,2.064,0,0,0,1.934-.973V-12.68h3.973V0h-3.7ZM-328.238,0H-332.2V-18h3.961Zm8.326.234a6.518,6.518,0,0,1-4.723-1.74,6.009,6.009,0,0,1-1.8-4.529v-.328a7.787,7.787,0,0,1,.721-3.434,5.274,5.274,0,0,1,2.1-2.3,6.35,6.35,0,0,1,3.281-.814,5.489,5.489,0,0,1,4.219,1.658,6.516,6.516,0,0,1,1.547,4.623V-5.1h-7.852a2.846,2.846,0,0,0,.926,1.676,2.755,2.755,0,0,0,1.852.609,3.549,3.549,0,0,0,2.93-1.312l1.8,2.133A5.045,5.045,0,0,1-317-.369,7.069,7.069,0,0,1-319.911.234Zm-.445-10.1q-1.734,0-2.062,2.3h3.984v-.3a1.956,1.956,0,0,0-.48-1.471A1.912,1.912,0,0,0-320.357-9.867Zm11.8,6.82h5.777V0h-10.77V-2.2l5.625-7.43h-5.379V-12.68h10.395v2.133Zm12.692-3.387a7.746,7.746,0,0,1,1.3-4.746,4.282,4.282,0,0,1,3.633-1.734,3.641,3.641,0,0,1,2.859,1.336V-18h3.961V0h-3.551l-.2-1.359A3.739,3.739,0,0,1-290.96.234,4.274,4.274,0,0,1-294.546-1.5,7.991,7.991,0,0,1-295.87-6.434Zm3.949.246q0,3.375,1.969,3.375a1.944,1.944,0,0,0,1.875-1.1V-8.742a1.892,1.892,0,0,0-1.852-1.125q-1.828,0-1.98,2.953ZM-275.977.234a6.518,6.518,0,0,1-4.723-1.74,6.009,6.009,0,0,1-1.8-4.529v-.328a7.787,7.787,0,0,1,.721-3.434,5.274,5.274,0,0,1,2.1-2.3,6.35,6.35,0,0,1,3.281-.814,5.489,5.489,0,0,1,4.219,1.658,6.516,6.516,0,0,1,1.547,4.623V-5.1h-7.852a2.846,2.846,0,0,0,.926,1.676,2.755,2.755,0,0,0,1.852.609,3.549,3.549,0,0,0,2.93-1.312l1.8,2.133a5.045,5.045,0,0,1-2.092,1.623A7.069,7.069,0,0,1-275.977.234Zm-.445-10.1q-1.734,0-2.062,2.3h3.984v-.3a1.956,1.956,0,0,0-.48-1.471A1.912,1.912,0,0,0-276.422-9.867Zm13.776,6.3a.912.912,0,0,0-.527-.809,8.021,8.021,0,0,0-2-.633,9.138,9.138,0,0,1-2.437-.861A4.083,4.083,0,0,1-269.08-7.16a3.092,3.092,0,0,1-.5-1.746,3.5,3.5,0,0,1,1.441-2.877,5.938,5.938,0,0,1,3.773-1.131,6.579,6.579,0,0,1,4.031,1.137,3.555,3.555,0,0,1,1.523,2.988h-3.961q0-1.523-1.605-1.523a1.591,1.591,0,0,0-1.043.346,1.07,1.07,0,0,0-.422.861.982.982,0,0,0,.516.855,4.872,4.872,0,0,0,1.646.539,14.228,14.228,0,0,1,1.986.5q2.859.984,2.859,3.527a3.321,3.321,0,0,1-1.541,2.824,6.758,6.758,0,0,1-3.99,1.09,6.9,6.9,0,0,1-2.906-.586,4.86,4.86,0,0,1-1.992-1.594,3.609,3.609,0,0,1-.715-2.121h3.691a1.526,1.526,0,0,0,.586,1.283,2.41,2.41,0,0,0,1.441.4,1.9,1.9,0,0,0,1.213-.328A1.05,1.05,0,0,0-262.647-3.562Zm22.922-2.684a7.646,7.646,0,0,1-1.33,4.717A4.264,4.264,0,0,1-244.646.234a3.655,3.655,0,0,1-2.871-1.277V4.875h-3.949V-12.68h3.691l.117,1.172a3.656,3.656,0,0,1,2.988-1.406,4.3,4.3,0,0,1,3.645,1.729,7.741,7.741,0,0,1,1.3,4.752Zm-3.949-.246q0-3.375-1.969-3.375a1.859,1.859,0,0,0-1.875,1.008v4.992a1.919,1.919,0,0,0,1.9,1.055q1.887,0,1.945-3.258Zm4.951.035a7.484,7.484,0,0,1,.738-3.381,5.28,5.28,0,0,1,2.121-2.279,6.388,6.388,0,0,1,3.246-.8,5.83,5.83,0,0,1,4.488,1.764,6.768,6.768,0,0,1,1.641,4.8v.141a6.566,6.566,0,0,1-1.646,4.705,5.846,5.846,0,0,1-4.459,1.74,5.912,5.912,0,0,1-4.348-1.623,6.348,6.348,0,0,1-1.77-4.4Zm3.949.246a4.718,4.718,0,0,0,.551,2.578,1.835,1.835,0,0,0,1.629.82q2.109,0,2.156-3.246v-.4q0-3.41-2.18-3.41-1.98,0-2.145,2.941ZM-220.822,0h-3.961V-12.68h3.961Zm-4.2-15.949a1.763,1.763,0,0,1,.609-1.383,2.3,2.3,0,0,1,1.582-.539,2.3,2.3,0,0,1,1.582.539,1.763,1.763,0,0,1,.609,1.383,1.763,1.763,0,0,1-.609,1.383,2.3,2.3,0,0,1-1.582.539,2.3,2.3,0,0,1-1.582-.539A1.763,1.763,0,0,1-225.017-15.949ZM-215-12.68l.129,1.488a4.3,4.3,0,0,1,3.621-1.723,3.618,3.618,0,0,1,2.959,1.184,5.635,5.635,0,0,1,1.014,3.563V0h-3.961V-8a2.14,2.14,0,0,0-.387-1.412,1.789,1.789,0,0,0-1.406-.451,1.883,1.883,0,0,0-1.723.914V0h-3.949V-12.68Zm14.268-3.152v3.152h2.086v2.742h-2.086v5.8a1.481,1.481,0,0,0,.258,1,1.383,1.383,0,0,0,1.02.281,5.793,5.793,0,0,0,.984-.07V-.105a7.288,7.288,0,0,1-2.227.34,4.137,4.137,0,0,1-3.012-.961,3.939,3.939,0,0,1-.973-2.918V-9.937H-206.3V-12.68h1.617v-3.152ZM-190.7-3.562a.912.912,0,0,0-.527-.809,8.021,8.021,0,0,0-2-.633,9.138,9.138,0,0,1-2.437-.861,4.083,4.083,0,0,1-1.465-1.295,3.092,3.092,0,0,1-.5-1.746,3.5,3.5,0,0,1,1.441-2.877,5.938,5.938,0,0,1,3.773-1.131,6.579,6.579,0,0,1,4.031,1.137,3.555,3.555,0,0,1,1.523,2.988h-3.961q0-1.523-1.605-1.523a1.591,1.591,0,0,0-1.043.346,1.07,1.07,0,0,0-.422.861.982.982,0,0,0,.516.855,4.872,4.872,0,0,0,1.646.539,14.228,14.228,0,0,1,1.986.5q2.859.984,2.859,3.527A3.321,3.321,0,0,1-188.43-.855a6.758,6.758,0,0,1-3.99,1.09,6.9,6.9,0,0,1-2.906-.586,4.86,4.86,0,0,1-1.992-1.594,3.609,3.609,0,0,1-.715-2.121h3.691a1.526,1.526,0,0,0,.586,1.283,2.41,2.41,0,0,0,1.441.4,1.9,1.9,0,0,0,1.213-.328A1.05,1.05,0,0,0-190.7-3.562Zm10.688-2.871a8.561,8.561,0,0,1,.633-3.4,5.094,5.094,0,0,1,1.816-2.279,4.788,4.788,0,0,1,2.754-.8,3.807,3.807,0,0,1,3.094,1.336l.141-1.1h3.586V-.48a5.346,5.346,0,0,1-.779,2.912,5,5,0,0,1-2.256,1.9,8.292,8.292,0,0,1-3.422.662,7.153,7.153,0,0,1-2.7-.527,4.876,4.876,0,0,1-2-1.371l1.652-2.32a3.621,3.621,0,0,0,2.906,1.3q2.625,0,2.625-2.7v-.4A3.708,3.708,0,0,1-174.83.234a4.583,4.583,0,0,1-3.75-1.775,7.356,7.356,0,0,1-1.43-4.752Zm3.961.246a4.511,4.511,0,0,0,.586,2.467,1.849,1.849,0,0,0,1.641.908,2.1,2.1,0,0,0,1.863-.855V-9a2.045,2.045,0,0,0-1.84-.867,1.861,1.861,0,0,0-1.652.943A5.144,5.144,0,0,0-176.049-6.187Zm17.737-2.918-1.3-.094A2.336,2.336,0,0,0-162-8.027V0h-3.949V-12.68h3.7l.129,1.629a3.058,3.058,0,0,1,2.777-1.863,3.851,3.851,0,0,1,1.1.141ZM-149.986,0a4.459,4.459,0,0,1-.375-1.137A3.672,3.672,0,0,1-153.408.234,4.5,4.5,0,0,1-156.455-.85a3.45,3.45,0,0,1-1.254-2.725,3.546,3.546,0,0,1,1.523-3.117,7.761,7.761,0,0,1,4.43-1.055h1.219v-.668q0-1.746-1.512-1.746a1.233,1.233,0,0,0-1.406,1.383H-157.4a3.546,3.546,0,0,1,1.564-2.988,6.569,6.569,0,0,1,3.99-1.148,5.764,5.764,0,0,1,3.832,1.184,4.115,4.115,0,0,1,1.441,3.246v5.613A5.748,5.748,0,0,0-146.037-.2V0Zm-2.473-2.578a2.2,2.2,0,0,0,1.225-.316,1.983,1.983,0,0,0,.7-.715V-5.637h-1.148q-2.062,0-2.062,1.852a1.131,1.131,0,0,0,.363.873A1.315,1.315,0,0,0-152.459-2.578ZM-147-14.707v.152h-3.117l-1.863-1.594-1.863,1.594h-3.047v-.2L-153.1-18h2.262Zm7.729,11.895a1.756,1.756,0,0,0,1.289-.451,1.654,1.654,0,0,0,.445-1.26h3.7A4.384,4.384,0,0,1-135.326-1.1a5.558,5.558,0,0,1-3.85,1.336A5.627,5.627,0,0,1-143.534-1.5a6.834,6.834,0,0,1-1.594-4.8v-.164a7.723,7.723,0,0,1,.709-3.393,5.162,5.162,0,0,1,2.045-2.262,6.1,6.1,0,0,1,3.164-.791,5.488,5.488,0,0,1,3.926,1.371,4.863,4.863,0,0,1,1.453,3.715h-3.7a2.168,2.168,0,0,0-.48-1.512,1.658,1.658,0,0,0-1.289-.527q-1.535,0-1.793,1.957a13.809,13.809,0,0,0-.082,1.711,5.424,5.424,0,0,0,.457,2.648A1.582,1.582,0,0,0-139.269-2.812Zm13,3.047a6.518,6.518,0,0,1-4.723-1.74,6.009,6.009,0,0,1-1.8-4.529v-.328a7.787,7.787,0,0,1,.721-3.434,5.274,5.274,0,0,1,2.1-2.3,6.35,6.35,0,0,1,3.281-.814,5.489,5.489,0,0,1,4.219,1.658,6.516,6.516,0,0,1,1.547,4.623V-5.1h-7.852a2.846,2.846,0,0,0,.926,1.676A2.755,2.755,0,0,0-126-2.812a3.549,3.549,0,0,0,2.93-1.312l1.8,2.133a5.045,5.045,0,0,1-2.092,1.623A7.069,7.069,0,0,1-126.267.234Zm-.445-10.1q-1.734,0-2.062,2.3h3.984v-.3a1.956,1.956,0,0,0-.48-1.471A1.912,1.912,0,0,0-126.712-9.867ZM-106.7,0a4.459,4.459,0,0,1-.375-1.137A3.672,3.672,0,0,1-110.118.234,4.5,4.5,0,0,1-113.165-.85a3.45,3.45,0,0,1-1.254-2.725A3.546,3.546,0,0,1-112.9-6.691a7.761,7.761,0,0,1,4.43-1.055h1.219v-.668q0-1.746-1.512-1.746a1.233,1.233,0,0,0-1.406,1.383h-3.949a3.546,3.546,0,0,1,1.564-2.988,6.569,6.569,0,0,1,3.99-1.148,5.764,5.764,0,0,1,3.832,1.184,4.115,4.115,0,0,1,1.441,3.246v5.613A5.748,5.748,0,0,0-102.747-.2V0Zm-2.473-2.578a2.2,2.2,0,0,0,1.225-.316,1.983,1.983,0,0,0,.7-.715V-5.637H-108.4q-2.062,0-2.062,1.852a1.131,1.131,0,0,0,.363.873A1.315,1.315,0,0,0-109.169-2.578ZM-106.8-14.32h-3.211l-3.3-3.68h4.172ZM-90.547-4.7l2-7.98h4.16L-88.52,0h-4.031l-4.137-12.68h4.172Zm6.428-1.758a7.484,7.484,0,0,1,.738-3.381,5.28,5.28,0,0,1,2.121-2.279,6.388,6.388,0,0,1,3.246-.8,5.83,5.83,0,0,1,4.488,1.764,6.768,6.768,0,0,1,1.641,4.8v.141a6.566,6.566,0,0,1-1.646,4.705A5.846,5.846,0,0,1-77.99.234a5.912,5.912,0,0,1-4.348-1.623,6.348,6.348,0,0,1-1.77-4.4Zm3.949.246a4.718,4.718,0,0,0,.551,2.578,1.835,1.835,0,0,0,1.629.82q2.109,0,2.156-3.246v-.4q0-3.41-2.18-3.41-1.98,0-2.145,2.941Zm16.424,2.648a.912.912,0,0,0-.527-.809,8.021,8.021,0,0,0-2-.633,9.138,9.138,0,0,1-2.437-.861A4.083,4.083,0,0,1-70.179-7.16a3.092,3.092,0,0,1-.5-1.746,3.5,3.5,0,0,1,1.441-2.877,5.938,5.938,0,0,1,3.773-1.131,6.579,6.579,0,0,1,4.031,1.137,3.555,3.555,0,0,1,1.523,2.988h-3.961q0-1.523-1.605-1.523a1.591,1.591,0,0,0-1.043.346,1.07,1.07,0,0,0-.422.861.982.982,0,0,0,.516.855,4.872,4.872,0,0,0,1.646.539,14.228,14.228,0,0,1,1.986.5q2.859.984,2.859,3.527A3.321,3.321,0,0,1-61.478-.855a6.758,6.758,0,0,1-3.99,1.09,6.9,6.9,0,0,1-2.906-.586,4.86,4.86,0,0,1-1.992-1.594,3.609,3.609,0,0,1-.715-2.121h3.691A1.526,1.526,0,0,0-66.8-2.783a2.41,2.41,0,0,0,1.441.4,1.9,1.9,0,0,0,1.213-.328A1.05,1.05,0,0,0-63.746-3.562ZM-45.452,0a4.459,4.459,0,0,1-.375-1.137A3.672,3.672,0,0,1-48.874.234,4.5,4.5,0,0,1-51.921-.85a3.45,3.45,0,0,1-1.254-2.725,3.546,3.546,0,0,1,1.523-3.117,7.761,7.761,0,0,1,4.43-1.055H-46v-.668q0-1.746-1.512-1.746a1.233,1.233,0,0,0-1.406,1.383H-52.87a3.546,3.546,0,0,1,1.564-2.988,6.569,6.569,0,0,1,3.99-1.148,5.764,5.764,0,0,1,3.832,1.184,4.115,4.115,0,0,1,1.441,3.246v5.613A5.748,5.748,0,0,0-41.5-.2V0Zm-2.473-2.578A2.2,2.2,0,0,0-46.7-2.895a1.983,1.983,0,0,0,.7-.715V-5.637h-1.148q-2.062,0-2.062,1.852a1.131,1.131,0,0,0,.363.873A1.315,1.315,0,0,0-47.925-2.578Zm13.19-.234a1.756,1.756,0,0,0,1.289-.451A1.654,1.654,0,0,0-33-4.523h3.7A4.384,4.384,0,0,1-30.792-1.1,5.558,5.558,0,0,1-34.642.234,5.627,5.627,0,0,1-39-1.5a6.834,6.834,0,0,1-1.594-4.8v-.164a7.723,7.723,0,0,1,.709-3.393,5.162,5.162,0,0,1,2.045-2.262,6.1,6.1,0,0,1,3.164-.791,5.488,5.488,0,0,1,3.926,1.371A4.863,4.863,0,0,1-29.3-7.828H-33a2.168,2.168,0,0,0-.48-1.512,1.658,1.658,0,0,0-1.289-.527q-1.535,0-1.793,1.957A13.809,13.809,0,0,0-36.645-6.2a5.424,5.424,0,0,0,.457,2.648A1.582,1.582,0,0,0-34.735-2.812Zm10.729-8.508a3.952,3.952,0,0,1,3.234-1.594,3.941,3.941,0,0,1,3.164,1.242A5.582,5.582,0,0,1-16.518-8V0h-3.961V-7.91a2.232,2.232,0,0,0-.41-1.482,1.762,1.762,0,0,0-1.395-.475,1.9,1.9,0,0,0-1.723.773V0h-3.949V-18h3.949ZM-7.418,0a4.459,4.459,0,0,1-.375-1.137A3.672,3.672,0,0,1-10.84.234,4.5,4.5,0,0,1-13.887-.85a3.45,3.45,0,0,1-1.254-2.725,3.546,3.546,0,0,1,1.523-3.117,7.761,7.761,0,0,1,4.43-1.055h1.219v-.668q0-1.746-1.512-1.746a1.233,1.233,0,0,0-1.406,1.383h-3.949a3.546,3.546,0,0,1,1.564-2.988,6.569,6.569,0,0,1,3.99-1.148A5.764,5.764,0,0,1-5.45-11.73,4.115,4.115,0,0,1-4.008-8.484v5.613A5.748,5.748,0,0,0-3.469-.2V0ZM-9.891-2.578a2.2,2.2,0,0,0,1.225-.316,1.983,1.983,0,0,0,.7-.715V-5.637H-9.118q-2.062,0-2.062,1.852a1.131,1.131,0,0,0,.363.873A1.315,1.315,0,0,0-9.891-2.578ZM2.537-15.832v3.152H4.623v2.742H2.537v5.8a1.481,1.481,0,0,0,.258,1,1.383,1.383,0,0,0,1.02.281A5.793,5.793,0,0,0,4.8-2.93V-.105a7.288,7.288,0,0,1-2.227.34A4.137,4.137,0,0,1-.44-.727a3.939,3.939,0,0,1-.973-2.918V-9.937H-3.029V-12.68h1.617v-3.152ZM12.574-3.562a.912.912,0,0,0-.527-.809,8.021,8.021,0,0,0-2-.633,9.138,9.138,0,0,1-2.437-.861A4.083,4.083,0,0,1,6.141-7.16a3.092,3.092,0,0,1-.5-1.746,3.5,3.5,0,0,1,1.441-2.877,5.938,5.938,0,0,1,3.773-1.131,6.579,6.579,0,0,1,4.031,1.137,3.555,3.555,0,0,1,1.523,2.988H12.445q0-1.523-1.605-1.523A1.591,1.591,0,0,0,9.8-9.967a1.07,1.07,0,0,0-.422.861.982.982,0,0,0,.516.855,4.872,4.872,0,0,0,1.646.539,14.228,14.228,0,0,1,1.986.5q2.859.984,2.859,3.527A3.321,3.321,0,0,1,14.842-.855a6.758,6.758,0,0,1-3.99,1.09A6.9,6.9,0,0,1,7.945-.352,4.86,4.86,0,0,1,5.953-1.945a3.609,3.609,0,0,1-.715-2.121H8.93a1.526,1.526,0,0,0,.586,1.283,2.41,2.41,0,0,0,1.441.4,1.9,1.9,0,0,0,1.213-.328A1.05,1.05,0,0,0,12.574-3.562Zm13.606-.27a2.248,2.248,0,0,1,1.559.557,1.826,1.826,0,0,1,.621,1.424,1.826,1.826,0,0,1-.621,1.424A2.248,2.248,0,0,1,26.18.129a2.229,2.229,0,0,1-1.564-.562A1.839,1.839,0,0,1,24-1.852a1.839,1.839,0,0,1,.615-1.418A2.229,2.229,0,0,1,26.18-3.832Zm0-9.352a2.248,2.248,0,0,1,1.559.557A1.826,1.826,0,0,1,28.36-11.2a1.826,1.826,0,0,1-.621,1.424,2.248,2.248,0,0,1-1.559.557,2.229,2.229,0,0,1-1.564-.562A1.839,1.839,0,0,1,24-11.2a1.839,1.839,0,0,1,.615-1.418A2.229,2.229,0,0,1,26.18-13.184ZM43.535,0H40.571V-11.423l-3.538,1.1v-2.41l6.183-2.215h.318ZM58.014-6.173a7.563,7.563,0,0,1-1.282,4.737A4.474,4.474,0,0,1,52.979.205,4.505,4.505,0,0,1,49.247-1.4a7.342,7.342,0,0,1-1.323-4.614V-8.767a7.464,7.464,0,0,1,1.3-4.748,4.507,4.507,0,0,1,3.738-1.62,4.512,4.512,0,0,1,3.732,1.6,7.319,7.319,0,0,1,1.323,4.609ZM55.05-9.187a5.457,5.457,0,0,0-.508-2.7,1.716,1.716,0,0,0-1.584-.846,1.685,1.685,0,0,0-1.543.8,5.107,5.107,0,0,0-.528,2.517v3.63a5.728,5.728,0,0,0,.5,2.712,1.693,1.693,0,0,0,1.594.887,1.665,1.665,0,0,0,1.569-.851,5.592,5.592,0,0,0,.5-2.6ZM69.642-6.173A7.563,7.563,0,0,1,68.36-1.436,4.474,4.474,0,0,1,64.607.205,4.505,4.505,0,0,1,60.875-1.4a7.342,7.342,0,0,1-1.323-4.614V-8.767a7.464,7.464,0,0,1,1.3-4.748,4.507,4.507,0,0,1,3.738-1.62,4.512,4.512,0,0,1,3.732,1.6,7.319,7.319,0,0,1,1.323,4.609ZM66.679-9.187a5.457,5.457,0,0,0-.508-2.7,1.716,1.716,0,0,0-1.584-.846,1.685,1.685,0,0,0-1.543.8,5.107,5.107,0,0,0-.528,2.517v3.63a5.728,5.728,0,0,0,.5,2.712,1.693,1.693,0,0,0,1.594.887,1.665,1.665,0,0,0,1.569-.851,5.592,5.592,0,0,0,.5-2.6ZM86.141-5.445a6.654,6.654,0,0,1-1.164,4.107A3.731,3.731,0,0,1,81.835.205,3.456,3.456,0,0,1,79.117-.964V4.266H76.154v-15.36H78.9l.1,1.087a3.483,3.483,0,0,1,2.81-1.292A3.757,3.757,0,0,1,85-9.782,6.834,6.834,0,0,1,86.141-5.6ZM83.178-5.66a4.366,4.366,0,0,0-.549-2.389,1.787,1.787,0,0,0-1.594-.841,1.941,1.941,0,0,0-1.917,1.066v4.542a1.973,1.973,0,0,0,1.938,1.1Q83.178-2.184,83.178-5.66Zm3.917.01a6.58,6.58,0,0,1,.636-2.943,4.654,4.654,0,0,1,1.83-2,5.34,5.34,0,0,1,2.774-.708A5.052,5.052,0,0,1,96-9.926a5.514,5.514,0,0,1,1.584,3.732l.021.759a5.8,5.8,0,0,1-1.425,4.1A4.954,4.954,0,0,1,92.356.205a4.979,4.979,0,0,1-3.83-1.538A5.9,5.9,0,0,1,87.1-5.517Zm2.963.215a4.136,4.136,0,0,0,.595,2.415,1.963,1.963,0,0,0,1.7.836,1.967,1.967,0,0,0,1.682-.825,4.526,4.526,0,0,0,.6-2.64,4.1,4.1,0,0,0-.6-2.4,1.968,1.968,0,0,0-1.7-.851,1.935,1.935,0,0,0-1.682.846A4.6,4.6,0,0,0,90.059-5.435ZM102.138,0H99.165V-11.095h2.974ZM98.99-13.966a1.459,1.459,0,0,1,.446-1.1,1.676,1.676,0,0,1,1.215-.431,1.679,1.679,0,0,1,1.21.431,1.451,1.451,0,0,1,.451,1.1,1.455,1.455,0,0,1-.456,1.107,1.684,1.684,0,0,1-1.2.431,1.684,1.684,0,0,1-1.2-.431A1.455,1.455,0,0,1,98.99-13.966Zm7.9,2.871.092,1.282a3.874,3.874,0,0,1,3.189-1.487,3.219,3.219,0,0,1,2.625,1.036,4.832,4.832,0,0,1,.882,3.1V0h-2.963V-7.1a1.923,1.923,0,0,0-.41-1.369,1.836,1.836,0,0,0-1.364-.426,2.039,2.039,0,0,0-1.876,1.066V0H104.1V-11.095Zm12.162-2.728v2.728h1.9v2.174h-1.9v5.537a1.322,1.322,0,0,0,.236.882,1.184,1.184,0,0,0,.9.267,4.726,4.726,0,0,0,.872-.072V-.062a6.1,6.1,0,0,1-1.794.267q-3.117,0-3.179-3.148V-8.921h-1.62v-2.174h1.62v-2.728Zm9.137,10.756a.955.955,0,0,0-.538-.856,6.115,6.115,0,0,0-1.728-.559q-3.958-.831-3.958-3.363a3.049,3.049,0,0,1,1.225-2.466,4.943,4.943,0,0,1,3.2-.99,5.32,5.32,0,0,1,3.379.995,3.135,3.135,0,0,1,1.266,2.584h-2.963a1.434,1.434,0,0,0-.41-1.051,1.736,1.736,0,0,0-1.282-.415,1.774,1.774,0,0,0-1.159.338,1.068,1.068,0,0,0-.41.861.913.913,0,0,0,.467.795,4.8,4.8,0,0,0,1.574.523,12.856,12.856,0,0,1,1.866.5,3.066,3.066,0,0,1,2.348,2.984,2.894,2.894,0,0,1-1.3,2.456A5.618,5.618,0,0,1,126.4.205a5.867,5.867,0,0,1-2.476-.5,4.155,4.155,0,0,1-1.7-1.364,3.169,3.169,0,0,1-.615-1.871h2.81a1.547,1.547,0,0,0,.584,1.21,2.318,2.318,0,0,0,1.456.42,2.146,2.146,0,0,0,1.287-.323A1,1,0,0,0,128.184-3.066ZM138.08,0V-8.921h-1.651v-2.174h1.651v-.513a4.161,4.161,0,0,1,1.287-3.225,5.178,5.178,0,0,1,3.573-1.133,11.853,11.853,0,0,1,3.363.6l-.431,2.451a13.122,13.122,0,0,0-1.559-.385,7.658,7.658,0,0,0-1.189-.087q-2.071,0-2.071,1.835v.451h2.184v2.174h-2.184V0Zm9.608,0h-2.974V-11.095h2.974Zm1.569-5.629a6.686,6.686,0,0,1,1.164-4.132,3.776,3.776,0,0,1,3.184-1.538,3.4,3.4,0,0,1,2.676,1.21v-5.66h2.974V0h-2.676l-.144-1.179A3.487,3.487,0,0,1,153.585.205a3.766,3.766,0,0,1-3.143-1.543A6.9,6.9,0,0,1,149.257-5.629Zm2.963.215a4.368,4.368,0,0,0,.543,2.389,1.771,1.771,0,0,0,1.579.831,1.983,1.983,0,0,0,1.938-1.159V-7.731a1.955,1.955,0,0,0-1.917-1.159Q152.221-8.89,152.221-5.414ZM166.238.205a5.447,5.447,0,0,1-3.973-1.5,5.321,5.321,0,0,1-1.533-3.989v-.287a6.7,6.7,0,0,1,.646-2.989,4.741,4.741,0,0,1,1.83-2.03,5.137,5.137,0,0,1,2.7-.713,4.6,4.6,0,0,1,3.584,1.436A5.833,5.833,0,0,1,170.8-5.793v1.21h-7.065A2.753,2.753,0,0,0,164.6-2.84a2.619,2.619,0,0,0,1.83.656,3.2,3.2,0,0,0,2.676-1.241l1.456,1.63a4.449,4.449,0,0,1-1.8,1.471A5.921,5.921,0,0,1,166.238.205ZM165.9-8.9a1.856,1.856,0,0,0-1.43.595,3.073,3.073,0,0,0-.7,1.7h4.122v-.236a2.191,2.191,0,0,0-.533-1.523A1.915,1.915,0,0,0,165.9-8.9Zm.267-6.85h3.23l-2.84,3.179h-2.41ZM175.19,0h-2.974V-15.75h2.974Zm5.148,0h-2.974V-11.095h2.974ZM177.19-13.966a1.459,1.459,0,0,1,.446-1.1,1.676,1.676,0,0,1,1.215-.431,1.679,1.679,0,0,1,1.21.431,1.451,1.451,0,0,1,.451,1.1,1.455,1.455,0,0,1-.456,1.107,1.684,1.684,0,0,1-1.2.431,1.684,1.684,0,0,1-1.2-.431A1.455,1.455,0,0,1,177.19-13.966Zm8.716.144v2.728h1.9v2.174h-1.9v5.537a1.322,1.322,0,0,0,.236.882,1.184,1.184,0,0,0,.9.267,4.726,4.726,0,0,0,.872-.072V-.062a6.1,6.1,0,0,1-1.794.267q-3.117,0-3.179-3.148V-8.921h-1.62v-2.174h1.62v-2.728ZM194.141.205a5.447,5.447,0,0,1-3.973-1.5,5.321,5.321,0,0,1-1.533-3.989v-.287a6.7,6.7,0,0,1,.646-2.989,4.741,4.741,0,0,1,1.83-2.03,5.137,5.137,0,0,1,2.7-.713A4.6,4.6,0,0,1,197.4-9.864,5.833,5.833,0,0,1,198.7-5.793v1.21h-7.065a2.753,2.753,0,0,0,.866,1.743,2.619,2.619,0,0,0,1.83.656,3.2,3.2,0,0,0,2.676-1.241l1.456,1.63a4.449,4.449,0,0,1-1.8,1.471A5.921,5.921,0,0,1,194.141.205ZM193.8-8.9a1.856,1.856,0,0,0-1.43.595,3.073,3.073,0,0,0-.7,1.7h4.122v-.236a2.191,2.191,0,0,0-.533-1.523A1.915,1.915,0,0,0,193.8-8.9Zm.267-6.85h3.23l-2.84,3.179h-2.41Zm20.129,8.1h-9.167v-2.42H214.2Zm0,4.44h-9.167v-2.42H214.2Zm7.3-4.132.861-7.588h8.367v2.471h-5.937l-.369,3.209a4.7,4.7,0,0,1,2.246-.564,4.3,4.3,0,0,1,3.343,1.323,5.284,5.284,0,0,1,1.21,3.7,5.413,5.413,0,0,1-.61,2.589,4.306,4.306,0,0,1-1.748,1.774,5.458,5.458,0,0,1-2.687.631,5.8,5.8,0,0,1-2.512-.549,4.456,4.456,0,0,1-1.83-1.543,4.206,4.206,0,0,1-.713-2.266h2.933A2.19,2.19,0,0,0,224.7-2.7a2.064,2.064,0,0,0,1.461.518,1.822,1.822,0,0,0,1.548-.723,3.349,3.349,0,0,0,.543-2.046,2.769,2.769,0,0,0-.625-1.948,2.3,2.3,0,0,0-1.774-.677,2.565,2.565,0,0,0-1.712.554l-.287.267Zm15.519-2.744h-2a1.9,1.9,0,0,0,.47,1.322,1.856,1.856,0,0,0,1.367.443,3.3,3.3,0,0,0,1.136-.185L238.2-7.06a6.7,6.7,0,0,1-1.531.173,3.532,3.532,0,0,1-2.491-.846,3.188,3.188,0,0,1-.966-2.354H232.2V-11h1.011v-.742H232.2v-.909h1.023a3.266,3.266,0,0,1,1.05-2.342,3.669,3.669,0,0,1,2.515-.834,6.192,6.192,0,0,1,1.412.185l-.215,1.453a3.42,3.42,0,0,0-1.107-.191,1.68,1.68,0,0,0-1.854,1.729h1.992v.909h-2V-11h2ZM249.509.205a5.447,5.447,0,0,1-3.973-1.5A5.321,5.321,0,0,1,244-5.281v-.287a6.7,6.7,0,0,1,.646-2.989,4.741,4.741,0,0,1,1.83-2.03,5.137,5.137,0,0,1,2.7-.713,4.6,4.6,0,0,1,3.584,1.436,5.833,5.833,0,0,1,1.307,4.071v1.21h-7.065a2.753,2.753,0,0,0,.866,1.743,2.619,2.619,0,0,0,1.83.656,3.2,3.2,0,0,0,2.676-1.241l1.456,1.63a4.449,4.449,0,0,1-1.8,1.471A5.921,5.921,0,0,1,249.509.205ZM249.171-8.9a1.856,1.856,0,0,0-1.43.595,3.073,3.073,0,0,0-.7,1.7h4.122v-.236a2.191,2.191,0,0,0-.533-1.523A1.915,1.915,0,0,0,249.171-8.9Zm8.891-2.194.092,1.282a3.874,3.874,0,0,1,3.189-1.487,3.219,3.219,0,0,1,2.625,1.036,4.832,4.832,0,0,1,.882,3.1V0h-2.963V-7.1a1.923,1.923,0,0,0-.41-1.369,1.836,1.836,0,0,0-1.364-.426,2.039,2.039,0,0,0-1.876,1.066V0h-2.963V-11.095Zm23.421,5.65a6.718,6.718,0,0,1-1.138,4.158A3.77,3.77,0,0,1,277.165.205a3.464,3.464,0,0,1-2.881-1.384L274.15,0h-2.666V-15.75h2.963v5.65a3.375,3.375,0,0,1,2.7-1.2,3.8,3.8,0,0,1,3.184,1.492,6.728,6.728,0,0,1,1.154,4.2Zm-2.963-.215a4.414,4.414,0,0,0-.533-2.456A1.8,1.8,0,0,0,276.4-8.89a1.955,1.955,0,0,0-1.948,1.159v4.378a1.981,1.981,0,0,0,1.969,1.169A1.83,1.83,0,0,0,278.3-3.6,7.3,7.3,0,0,0,278.519-5.66Zm3.907.01a6.58,6.58,0,0,1,.636-2.943,4.654,4.654,0,0,1,1.83-2,5.34,5.34,0,0,1,2.774-.708,5.052,5.052,0,0,1,3.666,1.374,5.514,5.514,0,0,1,1.584,3.732l.021.759a5.8,5.8,0,0,1-1.425,4.1A4.954,4.954,0,0,1,287.686.205a4.979,4.979,0,0,1-3.83-1.538,5.9,5.9,0,0,1-1.43-4.184Zm2.963.215a4.136,4.136,0,0,0,.595,2.415,1.963,1.963,0,0,0,1.7.836,1.967,1.967,0,0,0,1.682-.825,4.526,4.526,0,0,0,.6-2.64,4.1,4.1,0,0,0-.6-2.4,1.968,1.968,0,0,0-1.7-.851,1.935,1.935,0,0,0-1.682.846A4.6,4.6,0,0,0,285.389-5.435Zm11.68-5.66.092,1.282A3.874,3.874,0,0,1,300.35-11.3a3.219,3.219,0,0,1,2.625,1.036,4.832,4.832,0,0,1,.882,3.1V0h-2.963V-7.1a1.923,1.923,0,0,0-.41-1.369,1.836,1.836,0,0,0-1.364-.426,2.039,2.039,0,0,0-1.876,1.066V0H294.28V-11.095Zm14.622,8.029a.955.955,0,0,0-.538-.856,6.115,6.115,0,0,0-1.728-.559q-3.958-.831-3.958-3.363a3.049,3.049,0,0,1,1.225-2.466,4.943,4.943,0,0,1,3.2-.99,5.32,5.32,0,0,1,3.379.995,3.135,3.135,0,0,1,1.266,2.584h-2.963a1.434,1.434,0,0,0-.41-1.051,1.736,1.736,0,0,0-1.282-.415,1.774,1.774,0,0,0-1.159.338,1.068,1.068,0,0,0-.41.861.913.913,0,0,0,.467.795,4.8,4.8,0,0,0,1.574.523,12.856,12.856,0,0,1,1.866.5,3.066,3.066,0,0,1,2.348,2.984,2.894,2.894,0,0,1-1.3,2.456,5.618,5.618,0,0,1-3.363.938,5.867,5.867,0,0,1-2.476-.5,4.155,4.155,0,0,1-1.7-1.364,3.169,3.169,0,0,1-.615-1.871h2.81a1.547,1.547,0,0,0,.584,1.21,2.318,2.318,0,0,0,1.456.42,2.146,2.146,0,0,0,1.287-.323A1,1,0,0,0,311.691-3.066Zm8.717-2.563a6.686,6.686,0,0,1,1.164-4.132,3.776,3.776,0,0,1,3.184-1.538,3.4,3.4,0,0,1,2.676,1.21v-5.66h2.974V0h-2.676l-.144-1.179A3.487,3.487,0,0,1,324.735.205a3.766,3.766,0,0,1-3.143-1.543A6.9,6.9,0,0,1,320.408-5.629Zm2.963.215a4.368,4.368,0,0,0,.543,2.389,1.771,1.771,0,0,0,1.579.831,1.983,1.983,0,0,0,1.938-1.159V-7.731a1.955,1.955,0,0,0-1.917-1.159Q323.371-8.89,323.371-5.414Zm9.762-4.932-1.395-.81a5.475,5.475,0,0,0,.913-2.861V-15.75h2.358v1.589a4.684,4.684,0,0,1-.513,2A5.5,5.5,0,0,1,333.133-10.346ZM342.6,0a3.291,3.291,0,0,1-.3-.995,3.586,3.586,0,0,1-2.8,1.2,3.939,3.939,0,0,1-2.7-.943,3.034,3.034,0,0,1-1.072-2.379,3.135,3.135,0,0,1,1.307-2.707,6.451,6.451,0,0,1,3.779-.954h1.364v-.636a1.828,1.828,0,0,0-.395-1.23,1.553,1.553,0,0,0-1.246-.461,1.766,1.766,0,0,0-1.174.359,1.219,1.219,0,0,0-.426.984h-2.963a2.977,2.977,0,0,1,.595-1.784,3.931,3.931,0,0,1,1.682-1.287,6.129,6.129,0,0,1,2.44-.467,4.842,4.842,0,0,1,3.256,1.031,3.605,3.605,0,0,1,1.2,2.9v4.809a5.3,5.3,0,0,0,.441,2.389V0Zm-2.451-2.061a2.552,2.552,0,0,0,1.21-.292,1.919,1.919,0,0,0,.82-.784V-5.045H341.07q-2.225,0-2.369,1.538l-.01.174a1.186,1.186,0,0,0,.39.913A1.514,1.514,0,0,0,340.147-2.061Zm11.475-.123a1.944,1.944,0,0,0,1.333-.451,1.581,1.581,0,0,0,.533-1.2h2.779a3.8,3.8,0,0,1-.615,2.066A4.06,4.06,0,0,1,354-.313a5.183,5.183,0,0,1-2.323.518,4.817,4.817,0,0,1-3.753-1.512,5.985,5.985,0,0,1-1.374-4.178v-.195a5.917,5.917,0,0,1,1.364-4.091,4.761,4.761,0,0,1,3.743-1.528,4.667,4.667,0,0,1,3.338,1.184,4.193,4.193,0,0,1,1.277,3.153h-2.779a2.02,2.02,0,0,0-.533-1.4A1.783,1.783,0,0,0,351.6-8.9a1.786,1.786,0,0,0-1.564.754A4.363,4.363,0,0,0,349.51-5.7v.308a4.418,4.418,0,0,0,.523,2.461A1.808,1.808,0,0,0,351.622-2.184Zm8.808-7.7a3.7,3.7,0,0,1,2.963-1.415q3.609,0,3.661,4.194V0h-2.963V-7.024a2.061,2.061,0,0,0-.41-1.41,1.758,1.758,0,0,0-1.364-.456,2.017,2.017,0,0,0-1.887,1V0h-2.963V-15.75h2.963ZM375.3,0a3.291,3.291,0,0,1-.3-.995,3.586,3.586,0,0,1-2.8,1.2,3.939,3.939,0,0,1-2.7-.943,3.034,3.034,0,0,1-1.072-2.379,3.135,3.135,0,0,1,1.307-2.707,6.451,6.451,0,0,1,3.779-.954h1.364v-.636a1.828,1.828,0,0,0-.395-1.23,1.553,1.553,0,0,0-1.246-.461,1.766,1.766,0,0,0-1.174.359,1.219,1.219,0,0,0-.426.984h-2.963a2.977,2.977,0,0,1,.595-1.784,3.931,3.931,0,0,1,1.682-1.287,6.129,6.129,0,0,1,2.44-.467,4.842,4.842,0,0,1,3.256,1.031,3.605,3.605,0,0,1,1.2,2.9v4.809a5.3,5.3,0,0,0,.441,2.389V0Zm-2.451-2.061a2.552,2.552,0,0,0,1.21-.292,1.919,1.919,0,0,0,.82-.784V-5.045h-1.107q-2.225,0-2.369,1.538l-.01.174a1.186,1.186,0,0,0,.39.913A1.514,1.514,0,0,0,372.848-2.061Zm10.408-11.761v2.728h1.9v2.174h-1.9v5.537a1.322,1.322,0,0,0,.236.882,1.184,1.184,0,0,0,.9.267,4.726,4.726,0,0,0,.872-.072V-.062a6.1,6.1,0,0,1-1.794.267q-3.117,0-3.179-3.148V-8.921h-1.62v-2.174h1.62v-2.728Zm9.137,10.756a.955.955,0,0,0-.538-.856,6.115,6.115,0,0,0-1.728-.559q-3.958-.831-3.958-3.363a3.049,3.049,0,0,1,1.225-2.466,4.943,4.943,0,0,1,3.2-.99,5.32,5.32,0,0,1,3.379.995,3.135,3.135,0,0,1,1.266,2.584H392.28a1.434,1.434,0,0,0-.41-1.051,1.736,1.736,0,0,0-1.282-.415,1.774,1.774,0,0,0-1.159.338,1.068,1.068,0,0,0-.41.861.913.913,0,0,0,.467.795,4.8,4.8,0,0,0,1.574.523,12.856,12.856,0,0,1,1.866.5,3.066,3.066,0,0,1,2.348,2.984,2.894,2.894,0,0,1-1.3,2.456,5.618,5.618,0,0,1-3.363.938,5.867,5.867,0,0,1-2.476-.5,4.155,4.155,0,0,1-1.7-1.364,3.169,3.169,0,0,1-.615-1.871h2.81a1.547,1.547,0,0,0,.584,1.21,2.318,2.318,0,0,0,1.456.42,2.146,2.146,0,0,0,1.287-.323A1,1,0,0,0,392.393-3.066Z" transform="translate(-4338 -7117)" fill="#ffce06"/>
    <g id="Group_5212" data-name="Group 5212" transform="translate(-5295 -7330)">
      <g id="Group_4524" data-name="Group 4524" transform="translate(349.011 183.742)">
        <g id="Group_4493" data-name="Group 4493" transform="translate(142.89 0)">
          <g id="Group_4489" data-name="Group 4489" transform="translate(0 0)">
            <ellipse id="Ellipse_282" data-name="Ellipse 282" cx="23.795" cy="23.795" rx="23.795" ry="23.795" transform="translate(0)" fill="#ffc303"/>
            <path id="Path_5782" data-name="Path 5782" d="M30,23.838A23.795,23.795,0,1,0,53.795.043,23.795,23.795,0,0,0,30,23.838ZM53.795,1.065A22.772,22.772,0,1,1,31.022,23.838,22.772,22.772,0,0,1,53.795,1.065Z" transform="translate(-29.999 -0.043)" fill="url(#linear-gradient)" style="mix-blend-mode: soft-light;isolation: isolate"/>
          </g>
          <g id="Group_4490" data-name="Group 4490" transform="translate(8.459 8.459)">
            <path id="Path_5783" data-name="Path 5783" d="M75.5,60.879A15.336,15.336,0,1,0,90.836,45.543,15.336,15.336,0,0,0,75.5,60.879Zm15.336-14.5a14.5,14.5,0,1,1-14.5,14.5A14.5,14.5,0,0,1,90.836,46.38Z" transform="translate(-75.5 -45.543)" fill="url(#linear-gradient-2)" style="mix-blend-mode: soft-light;isolation: isolate"/>
            <ellipse id="Ellipse_283" data-name="Ellipse 283" cx="14.509" cy="14.509" rx="14.509" ry="14.509" transform="translate(0.827 0.827)" style="mix-blend-mode: soft-light;isolation: isolate"/>
            <ellipse id="Ellipse_284" data-name="Ellipse 284" cx="14.509" cy="14.509" rx="14.509" ry="14.509" transform="translate(0.827 0.827)" fill="#333" style="mix-blend-mode: soft-light;isolation: isolate"/>
          </g>
          <g id="Group_4491" data-name="Group 4491" transform="translate(12.177 12.618)">
            <path id="Path_5784" data-name="Path 5784" d="M104.67,69.7l-1.556,4.789H98.079a2.574,2.574,0,0,0-1.513,4.656l4.074,2.96-1.556,4.789a2.574,2.574,0,0,0,3.961,2.878l4.074-2.96,4.074,2.96a2.574,2.574,0,0,0,3.961-2.878L113.6,82.1l4.074-2.96a2.574,2.574,0,0,0-1.513-4.656h-5.036L109.566,69.7A2.574,2.574,0,0,0,104.67,69.7Z" transform="translate(-95.5 -67.919)" fill="#ffc303"/>
            <path id="Path_5785" data-name="Path 5785" d="M104.67,69.7l-1.556,4.789H98.079a2.574,2.574,0,0,0-1.513,4.656l4.074,2.96-1.556,4.789a2.574,2.574,0,0,0,3.961,2.878l4.074-2.96,4.074,2.96a2.574,2.574,0,0,0,3.961-2.878L113.6,82.1l4.074-2.96a2.574,2.574,0,0,0-1.513-4.656h-5.036L109.566,69.7A2.574,2.574,0,0,0,104.67,69.7Z" transform="translate(-95.5 -67.919)" fill="url(#linear-gradient)" style="mix-blend-mode: soft-light;isolation: isolate"/>
            <path id="Path_5786" data-name="Path 5786" d="M105.624,93.419a1.6,1.6,0,0,0,.956-.325l4.622-3.358,4.622,3.358a1.605,1.605,0,0,0,.956.325,1.713,1.713,0,0,0,1.357-.707,1.58,1.58,0,0,0,.214-1.455l-1.765-5.433,4.622-3.358a1.642,1.642,0,0,0-.966-2.971h-5.712l-1.765-5.433a1.642,1.642,0,0,0-3.124,0L107.875,79.5h-5.713a1.642,1.642,0,0,0-.965,2.971l4.622,3.358-1.765,5.433a1.58,1.58,0,0,0,.214,1.454A1.714,1.714,0,0,0,105.624,93.419Z" transform="translate(-99.583 -71.997)" fill="#ffc303"/>
          </g>
          <g id="Group_4492" data-name="Group 4492" transform="translate(0.001 0)">
            <path id="Path_5787" data-name="Path 5787" d="M34.41,29.9a23.8,23.8,0,0,0,46.77,6.216A21.207,21.207,0,1,1,50.191,7.493,23.8,23.8,0,0,0,34.41,29.9Z" transform="translate(-34.41 -6.108)" fill="gray" style="mix-blend-mode: soft-light;isolation: isolate"/>
            <path id="Path_5788" data-name="Path 5788" d="M30,17.346A21.207,21.207,0,0,0,68.187,30.054,23.964,23.964,0,0,0,68.7,20.006,14.265,14.265,0,1,1,48.156.223a24.06,24.06,0,0,0-2.945-.18A23.739,23.739,0,0,0,37.2,1.428,21.148,21.148,0,0,0,30,17.346Z" transform="translate(-21.417 -0.043)" fill="#b3b3b3" style="mix-blend-mode: soft-light;isolation: isolate"/>
            <path id="Path_5789" data-name="Path 5789" d="M31.66,11.2a14.265,14.265,0,0,0,24.819,9.6A23.809,23.809,0,0,0,35.937,1.013,14.219,14.219,0,0,0,31.66,11.2Z" transform="translate(-9.198 -0.833)" fill="#e6e6e6" style="mix-blend-mode: soft-light;isolation: isolate"/>
          </g>
          <path id="Path_5790" data-name="Path 5790" d="M75.124,58.666l-.856,2.313-2.313.856,2.313.856L75.124,65l.856-2.313,2.313-.856-2.313-.856Z" transform="translate(-38.501 -47.768)" fill="#fff"/>
          <path id="Path_5791" data-name="Path 5791" d="M201.493,162.715l-.856,2.313-2.313.856,2.313.856.856,2.313.856-2.313,2.313-.856-2.313-.856Z" transform="translate(-188.363 -132.474)" fill="#fff"/>
        </g>
      </g>
      <g id="Group_4530" data-name="Group 4530" transform="translate(310.801 177.742)">
        <g id="Group_4493-2" data-name="Group 4493" transform="translate(142.89 0)">
          <g id="Group_4489-2" data-name="Group 4489" transform="translate(0 0)">
            <ellipse id="Ellipse_282-2" data-name="Ellipse 282" cx="18.1" cy="18.1" rx="18.1" ry="18.1" transform="translate(0)" fill="#ffc303"/>
            <path id="Path_5782-2" data-name="Path 5782" d="M30,18.143A18.1,18.1,0,1,0,48.1.043,18.1,18.1,0,0,0,30,18.143ZM48.1.821A17.322,17.322,0,1,1,30.778,18.143,17.322,17.322,0,0,1,48.1.821Z" transform="translate(-29.999 -0.043)" fill="url(#linear-gradient)" style="mix-blend-mode: soft-light;isolation: isolate"/>
          </g>
          <g id="Group_4490-2" data-name="Group 4490" transform="translate(6.435 6.434)">
            <path id="Path_5783-2" data-name="Path 5783" d="M75.5,57.209A11.666,11.666,0,1,0,87.166,45.543,11.666,11.666,0,0,0,75.5,57.209Zm11.666-11.03a11.03,11.03,0,1,1-11.03,11.03A11.03,11.03,0,0,1,87.166,46.179Z" transform="translate(-75.5 -45.543)" fill="url(#linear-gradient-2)" style="mix-blend-mode: soft-light;isolation: isolate"/>
            <ellipse id="Ellipse_283-2" data-name="Ellipse 283" cx="11.037" cy="11.037" rx="11.037" ry="11.037" transform="translate(0.629 0.629)" style="mix-blend-mode: soft-light;isolation: isolate"/>
            <ellipse id="Ellipse_284-2" data-name="Ellipse 284" cx="11.037" cy="11.037" rx="11.037" ry="11.037" transform="translate(0.629 0.629)" fill="#333" style="mix-blend-mode: soft-light;isolation: isolate"/>
          </g>
          <g id="Group_4491-2" data-name="Group 4491" transform="translate(9.263 9.598)">
            <path id="Path_5784-2" data-name="Path 5784" d="M102.476,69.271l-1.184,3.643H97.461a1.958,1.958,0,0,0-1.151,3.542l3.1,2.251-1.184,3.643a1.958,1.958,0,0,0,3.013,2.189l3.1-2.252,3.1,2.252a1.958,1.958,0,0,0,3.013-2.189l-1.184-3.643,3.1-2.251a1.958,1.958,0,0,0-1.151-3.542h-3.831L106.2,69.271A1.958,1.958,0,0,0,102.476,69.271Z" transform="translate(-95.5 -67.919)" fill="#ffc303"/>
            <path id="Path_5785-2" data-name="Path 5785" d="M102.476,69.271l-1.184,3.643H97.461a1.958,1.958,0,0,0-1.151,3.542l3.1,2.251-1.184,3.643a1.958,1.958,0,0,0,3.013,2.189l3.1-2.252,3.1,2.252a1.958,1.958,0,0,0,3.013-2.189l-1.184-3.643,3.1-2.251a1.958,1.958,0,0,0-1.151-3.542h-3.831L106.2,69.271A1.958,1.958,0,0,0,102.476,69.271Z" transform="translate(-95.5 -67.919)" fill="url(#linear-gradient)" style="mix-blend-mode: soft-light;isolation: isolate"/>
            <path id="Path_5786-2" data-name="Path 5786" d="M104.4,88.515a1.221,1.221,0,0,0,.728-.247l3.515-2.554,3.515,2.554a1.221,1.221,0,0,0,.728.247,1.3,1.3,0,0,0,1.032-.538,1.2,1.2,0,0,0,.163-1.107l-1.343-4.133,3.515-2.554a1.249,1.249,0,0,0-.734-2.26h-4.345l-1.343-4.133a1.249,1.249,0,0,0-2.376,0l-1.343,4.133h-4.345a1.249,1.249,0,0,0-.734,2.26l3.515,2.554-1.343,4.133a1.2,1.2,0,0,0,.163,1.106A1.3,1.3,0,0,0,104.4,88.515Z" transform="translate(-99.806 -72.22)" fill="#ffc303"/>
          </g>
          <g id="Group_4492-2" data-name="Group 4492" transform="translate(0.001 0)">
            <path id="Path_5787-2" data-name="Path 5787" d="M34.41,24.539a18.1,18.1,0,0,0,35.576,4.729A16.131,16.131,0,1,1,46.414,7.493,18.106,18.106,0,0,0,34.41,24.539Z" transform="translate(-34.41 -6.44)" fill="gray" style="mix-blend-mode: soft-light;isolation: isolate"/>
            <path id="Path_5788-2" data-name="Path 5788" d="M30,13.205a16.132,16.132,0,0,0,29.047,9.666,18.228,18.228,0,0,0,.389-7.643A10.851,10.851,0,1,1,43.811.18a18.3,18.3,0,0,0-2.24-.137,18.057,18.057,0,0,0-6.1,1.053A16.087,16.087,0,0,0,30,13.205Z" transform="translate(-23.471 -0.043)" fill="#b3b3b3" style="mix-blend-mode: soft-light;isolation: isolate"/>
            <path id="Path_5789-2" data-name="Path 5789" d="M31.66,8.759a10.851,10.851,0,0,0,18.879,7.3A18.11,18.11,0,0,0,34.914,1.013,10.816,10.816,0,0,0,31.66,8.759Z" transform="translate(-14.574 -0.876)" fill="#e6e6e6" style="mix-blend-mode: soft-light;isolation: isolate"/>
          </g>
          <path id="Path_5790-2" data-name="Path 5790" d="M74.366,58.666l-.651,1.759-1.759.651,1.759.651.651,1.759.651-1.759,1.759-.651-1.759-.651Z" transform="translate(-46.508 -50.376)" fill="#fff"/>
          <path id="Path_5791-2" data-name="Path 5791" d="M200.735,162.715l-.651,1.759-1.759.651,1.759.651.651,1.759.651-1.759,1.759-.651-1.759-.651Z" transform="translate(-190.747 -139.712)" fill="#fff"/>
        </g>
      </g>
      <g id="Group_4531" data-name="Group 4531" transform="translate(285.244 197.185)">
        <g id="Group_4493-3" data-name="Group 4493" transform="translate(142.89 0)">
          <g id="Group_4489-3" data-name="Group 4489" transform="translate(0 0)">
            <ellipse id="Ellipse_282-3" data-name="Ellipse 282" cx="11.379" cy="11.379" rx="11.379" ry="11.379" transform="translate(0)" fill="#ffc303"/>
            <path id="Path_5782-3" data-name="Path 5782" d="M30,11.422A11.379,11.379,0,1,0,41.379.043,11.379,11.379,0,0,0,30,11.422ZM41.379.532a10.89,10.89,0,1,1-10.89,10.89A10.89,10.89,0,0,1,41.379.532Z" transform="translate(-30 -0.043)" fill="url(#linear-gradient)" style="mix-blend-mode: soft-light;isolation: isolate"/>
          </g>
          <g id="Group_4490-3" data-name="Group 4490" transform="translate(4.045 4.045)">
            <path id="Path_5783-3" data-name="Path 5783" d="M75.5,52.877a7.334,7.334,0,1,0,7.334-7.334A7.334,7.334,0,0,0,75.5,52.877Zm7.334-6.934A6.934,6.934,0,1,1,75.9,52.877,6.934,6.934,0,0,1,82.834,45.943Z" transform="translate(-75.5 -45.543)" fill="url(#linear-gradient-2)" style="mix-blend-mode: soft-light;isolation: isolate"/>
            <ellipse id="Ellipse_283-3" data-name="Ellipse 283" cx="6.938" cy="6.938" rx="6.938" ry="6.938" transform="translate(0.395 0.396)" style="mix-blend-mode: soft-light;isolation: isolate"/>
            <ellipse id="Ellipse_284-3" data-name="Ellipse 284" cx="6.938" cy="6.938" rx="6.938" ry="6.938" transform="translate(0.395 0.396)" fill="#333" style="mix-blend-mode: soft-light;isolation: isolate"/>
          </g>
          <g id="Group_4491-3" data-name="Group 4491" transform="translate(5.823 6.034)">
            <path id="Path_5784-3" data-name="Path 5784" d="M99.885,68.769l-.744,2.29H96.733a1.231,1.231,0,0,0-.723,2.227L97.958,74.7l-.744,2.29a1.231,1.231,0,0,0,1.894,1.376l1.948-1.416L103,78.368a1.231,1.231,0,0,0,1.894-1.376l-.744-2.29,1.948-1.415a1.231,1.231,0,0,0-.723-2.227h-2.408l-.744-2.29A1.231,1.231,0,0,0,99.885,68.769Z" transform="translate(-95.5 -67.919)" fill="#ffc303"/>
            <path id="Path_5785-3" data-name="Path 5785" d="M99.885,68.769l-.744,2.29H96.733a1.231,1.231,0,0,0-.723,2.227L97.958,74.7l-.744,2.29a1.231,1.231,0,0,0,1.894,1.376l1.948-1.416L103,78.368a1.231,1.231,0,0,0,1.894-1.376l-.744-2.29,1.948-1.415a1.231,1.231,0,0,0-.723-2.227h-2.408l-.744-2.29A1.231,1.231,0,0,0,99.885,68.769Z" transform="translate(-95.5 -67.919)" fill="url(#linear-gradient)" style="mix-blend-mode: soft-light;isolation: isolate"/>
            <path id="Path_5786-3" data-name="Path 5786" d="M102.958,82.727a.768.768,0,0,0,.457-.156l2.21-1.606,2.21,1.606a.768.768,0,0,0,.457.156.819.819,0,0,0,.649-.338.756.756,0,0,0,.1-.7l-.844-2.6,2.21-1.606a.785.785,0,0,0-.462-1.421h-2.732l-.844-2.6a.785.785,0,0,0-1.494,0l-.844,2.6H101.3a.785.785,0,0,0-.462,1.421l2.21,1.606-.844,2.6a.756.756,0,0,0,.1.7A.819.819,0,0,0,102.958,82.727Z" transform="translate(-100.07 -72.483)" fill="#ffc303"/>
          </g>
          <g id="Group_4492-3" data-name="Group 4492" transform="translate(0 0)">
            <path id="Path_5787-3" data-name="Path 5787" d="M34.41,18.209a11.38,11.38,0,0,0,22.365,2.973A10.141,10.141,0,1,1,41.956,7.493,11.383,11.383,0,0,0,34.41,18.209Z" transform="translate(-34.41 -6.831)" fill="gray" style="mix-blend-mode: soft-light;isolation: isolate"/>
            <path id="Path_5788-3" data-name="Path 5788" d="M30,8.317a10.141,10.141,0,0,0,18.261,6.077,11.46,11.46,0,0,0,.244-4.8A6.822,6.822,0,1,1,38.682.129,11.506,11.506,0,0,0,37.274.043a11.352,11.352,0,0,0-3.832.662A10.113,10.113,0,0,0,30,8.317Z" transform="translate(-25.896 -0.043)" fill="#b3b3b3" style="mix-blend-mode: soft-light;isolation: isolate"/>
            <path id="Path_5789-3" data-name="Path 5789" d="M31.66,5.883a6.822,6.822,0,0,0,11.869,4.591,11.385,11.385,0,0,0-9.823-9.46A6.8,6.8,0,0,0,31.66,5.883Z" transform="translate(-20.919 -0.927)" fill="#e6e6e6" style="mix-blend-mode: soft-light;isolation: isolate"/>
          </g>
          <path id="Path_5790-3" data-name="Path 5790" d="M73.471,58.666l-.409,1.106-1.106.409,1.106.409.409,1.106.409-1.106,1.106-.409-1.106-.409Z" transform="translate(-55.958 -53.454)" fill="#fff"/>
          <path id="Path_5791-3" data-name="Path 5791" d="M199.84,162.715l-.409,1.106-1.106.409,1.106.409.409,1.106.409-1.106,1.106-.409-1.106-.409Z" transform="translate(-193.561 -148.254)" fill="#fff"/>
        </g>
      </g>
      <g id="Group_4529" data-name="Group 4529" transform="translate(-903.255 -757.528)">
        <path id="Path_5867" data-name="Path 5867" d="M81.677,58.666l-2.626,7.1-7.1,2.626,7.1,2.626,2.626,7.1,2.626-7.1,7.1-2.626-7.1-2.626Z" transform="translate(1359.857 872.813)" fill="#fff"/>
        <path id="Path_5868" data-name="Path 5868" d="M77.861,58.666l-1.6,4.311-4.311,1.6,4.311,1.6,1.6,4.311,1.6-4.311,4.311-1.6-4.311-1.6Z" transform="translate(1348.045 885.1)" fill="#fff"/>
      </g>
      <g id="Group_4783" data-name="Group 4783" transform="translate(-977.115 -716.811)">
        <path id="Path_5867-2" data-name="Path 5867" d="M78.678,58.666l-1.816,4.907-4.907,1.816L76.862,67.2l1.816,4.907L80.494,67.2,85.4,65.388l-4.907-1.816Z" transform="translate(1356.213 872.813)" fill="#fff"/>
        <path id="Path_5868-2" data-name="Path 5868" d="M76.04,58.666l-1.1,2.981-2.981,1.1,2.981,1.1,1.1,2.981,1.1-2.981,2.981-1.1-2.981-1.1Z" transform="translate(1348.045 881.309)" fill="#fff"/>
      </g>
    </g>
  </g>
</svg>
