<svg xmlns="http://www.w3.org/2000/svg" width="208.575" height="52" viewBox="0 0 208.575 52">
  <g id="Group_5212" data-name="Group 5212" transform="translate(-1110 -706)">
    <rect id="Button" width="208.575" height="52" transform="translate(1110 706)"/>
    <path id="Path_6526" data-name="Path 6526" d="M-39.367-11.375h2.344V-3.5a3.766,3.766,0,0,1-.48,1.918A3.261,3.261,0,0,1-38.859-.3a4.235,4.235,0,0,1-1.977.453,4.025,4.025,0,0,1-2.812-.918,3.335,3.335,0,0,1-1.008-2.6H-42.3a1.829,1.829,0,0,0,.352,1.234,1.407,1.407,0,0,0,1.109.4,1.343,1.343,0,0,0,1.07-.461,1.948,1.948,0,0,0,.4-1.312Zm4.852,3.492L-35.578-8.5a4.172,4.172,0,0,0,.7-2.18V-12h1.8v1.211a3.569,3.569,0,0,1-.391,1.523A4.188,4.188,0,0,1-34.516-7.883ZM-27.6.156A4.15,4.15,0,0,1-30.629-.984,4.054,4.054,0,0,1-31.8-4.023v-.219A5.106,5.106,0,0,1-31.3-6.52,3.612,3.612,0,0,1-29.91-8.066a3.914,3.914,0,0,1,2.059-.543,3.508,3.508,0,0,1,2.73,1.094,4.444,4.444,0,0,1,1,3.1v.922h-5.383a2.1,2.1,0,0,0,.66,1.328,2,2,0,0,0,1.395.5,2.437,2.437,0,0,0,2.039-.945L-24.3-1.367A3.389,3.389,0,0,1-25.68-.246,4.511,4.511,0,0,1-27.6.156Zm-.258-6.937a1.414,1.414,0,0,0-1.09.453,2.341,2.341,0,0,0-.535,1.3h3.141v-.18a1.669,1.669,0,0,0-.406-1.16A1.459,1.459,0,0,0-27.859-6.781Zm7.094-1.672.07.977a2.951,2.951,0,0,1,2.43-1.133,2.453,2.453,0,0,1,2,.789,3.682,3.682,0,0,1,.672,2.359V0h-2.258V-5.406a1.465,1.465,0,0,0-.312-1.043A1.4,1.4,0,0,0-19.2-6.773a1.553,1.553,0,0,0-1.43.813V0h-2.258V-8.453Zm18.477,4.3A5.07,5.07,0,0,1-3.176-1.02,2.843,2.843,0,0,1-5.57.156a2.633,2.633,0,0,1-2.07-.891V3.25H-9.9v-11.7H-7.8l.078.828a2.654,2.654,0,0,1,2.141-.984,2.862,2.862,0,0,1,2.43,1.156,5.207,5.207,0,0,1,.867,3.188Zm-2.258-.164a3.327,3.327,0,0,0-.418-1.82A1.361,1.361,0,0,0-6.18-6.773a1.478,1.478,0,0,0-1.461.813V-2.5a1.5,1.5,0,0,0,1.477.836Q-4.547-1.664-4.547-4.312ZM3.859-6.336A6.134,6.134,0,0,0,3.047-6.4a1.654,1.654,0,0,0-1.68.867V0H-.891V-8.453H1.242L1.3-7.445A2.092,2.092,0,0,1,3.188-8.609a2.366,2.366,0,0,1,.7.1ZM4.313-4.3A5.013,5.013,0,0,1,4.8-6.547,3.546,3.546,0,0,1,6.191-8.07,4.069,4.069,0,0,1,8.3-8.609,3.849,3.849,0,0,1,11.1-7.562,4.2,4.2,0,0,1,12.3-4.719l.016.578A4.418,4.418,0,0,1,11.234-1.02,3.775,3.775,0,0,1,8.32.156,3.793,3.793,0,0,1,5.4-1.016,4.5,4.5,0,0,1,4.313-4.2Zm2.258.164A3.151,3.151,0,0,0,7.023-2.3a1.5,1.5,0,0,0,1.3.637A1.5,1.5,0,0,0,9.6-2.293,3.448,3.448,0,0,0,10.063-4.3,3.12,3.12,0,0,0,9.6-6.133a1.5,1.5,0,0,0-1.3-.648,1.475,1.475,0,0,0-1.281.645A3.506,3.506,0,0,0,6.57-4.141ZM14.258,0V-6.8H13V-8.453h1.258v-.391a3.17,3.17,0,0,1,.98-2.457,3.945,3.945,0,0,1,2.723-.863,9.031,9.031,0,0,1,2.563.461L20.2-9.836a10,10,0,0,0-1.187-.293A5.835,5.835,0,0,0,18.1-10.2q-1.578,0-1.578,1.4v.344h1.664V-6.8H16.523V0Zm7.32,0H19.313V-8.453h2.266Zm4.57-10.531v2.078h1.445V-6.8H26.148v4.219a1.007,1.007,0,0,0,.18.672.9.9,0,0,0,.688.2,3.6,3.6,0,0,0,.664-.055V-.047a4.648,4.648,0,0,1-1.367.2,2.156,2.156,0,0,1-2.422-2.4V-6.8H22.656V-8.453h1.234v-2.078ZM32.742.156A4.15,4.15,0,0,1,29.715-.984a4.054,4.054,0,0,1-1.168-3.039v-.219a5.106,5.106,0,0,1,.492-2.277,3.612,3.612,0,0,1,1.395-1.547,3.914,3.914,0,0,1,2.059-.543,3.508,3.508,0,0,1,2.73,1.094,4.444,4.444,0,0,1,1,3.1v.922H30.836a2.1,2.1,0,0,0,.66,1.328,2,2,0,0,0,1.395.5,2.437,2.437,0,0,0,2.039-.945l1.109,1.242A3.389,3.389,0,0,1,34.664-.246,4.511,4.511,0,0,1,32.742.156Zm-.258-6.937a1.414,1.414,0,0,0-1.09.453,2.341,2.341,0,0,0-.535,1.3H34v-.18a1.669,1.669,0,0,0-.406-1.16A1.459,1.459,0,0,0,32.484-6.781Zm11.3,3.289H41.906l-.266-7.883h2.406Zm-.937,1.234a1.265,1.265,0,0,1,.918.336,1.143,1.143,0,0,1,.348.859,1.134,1.134,0,0,1-.348.852,1.265,1.265,0,0,1-.918.336,1.255,1.255,0,0,1-.91-.336,1.134,1.134,0,0,1-.348-.852,1.146,1.146,0,0,1,.348-.855A1.246,1.246,0,0,1,42.844-2.258Z" transform="translate(1214.288 738)" fill="#fff"/>
  </g>
</svg>
