<svg xmlns="http://www.w3.org/2000/svg" width="398.337" height="235.93" viewBox="0 0 398.337 235.93">
  <g id="Group_3868" data-name="Group 3868" transform="translate(0)">
    <path id="Path_5501" data-name="Path 5501" d="M18.875,151.362l349.687,6.294,22.294,15.391L-7.482,177.239Z" transform="translate(7.482 58.691)" fill="#d8dadb" opacity="0.241"/>
    <g id="Group_3858" data-name="Group 3858" transform="translate(10.383 108.1)">
      <path id="Path_5490" data-name="Path 5490" d="M2598.3,2805.137l-21.469-.961q14.064-22.31,28.152-44.62a11.168,11.168,0,0,1,3.078-3.606,6.551,6.551,0,0,1,.609-.344,12.71,12.71,0,0,1,5.337-.914q4.484-.108,8.975-.208,26.95-.613,53.924-.857a14.059,14.059,0,0,0,.689,5.858c3.686,10.778,18.448,8.326,21.99,5.537a12.893,12.893,0,0,0,4.96-11.548q7.465-.012,14.93,0,28.393.036,56.785.5,14.052.216,28.112.544c3.205.064,6.419.145,9.624.225q6.6.168,13.207.361a16.555,16.555,0,0,0,20.739,12.766,11.365,11.365,0,0,0,4.833-2.6,10.96,10.96,0,0,0,2.981-8.583c-.016-.225-.032-.44-.056-.665q27.888,1,55.759,2.38,9.075.457,18.135.946a7.516,7.516,0,0,1,3.518.769c1.4.85,2.083,2.476,2.677,4q10.362,26.6,20.715,53.194-12.2-.168-24.441-.384C2821.509,2814.986,2708.717,2810.1,2598.3,2805.137Z" transform="translate(-2576.828 -2753.463)" fill="#edeff1"/>
    </g>
    <g id="Group_3859" data-name="Group 3859" transform="translate(345.01 99.406)">
      <path id="Path_5491" data-name="Path 5491" d="M3016.051,2757.953a7.516,7.516,0,0,0-3.518-.77q-9.064-.493-18.135-.946v-13.623c.1,0,.208.008.313.008C3001.891,2747.68,3008.991,2752.816,3016.051,2757.953Z" transform="translate(-2994.398 -2742.615)" fill="#bac4cc"/>
    </g>
    <g id="Group_3860" data-name="Group 3860" transform="translate(31.852 159.773)">
      <path id="Path_5492" data-name="Path 5492" d="M2937.379,2829.725a273.627,273.627,0,0,0-1.659,55.166c-107.255,5.5-328.568-1.466-328.568-1.466s-2.965-47.706-3.534-65.48C2714.038,2822.914,2826.831,2827.794,2937.379,2829.725Z" transform="translate(-2603.618 -2817.945)" fill="#dce4ea"/>
    </g>
    <g id="Group_3861" data-name="Group 3861" transform="translate(280.428 98.517)">
      <path id="Path_5493" data-name="Path 5493" d="M2978.39,2742.395v13.623q-27.863-1.382-55.759-2.38a14.471,14.471,0,0,0-1.491-5.049,16.463,16.463,0,0,0-7.333-7.084C2936.519,2741.8,2960.512,2742.1,2978.39,2742.395Z" transform="translate(-2913.808 -2741.505)" fill="#cbd3dc"/>
    </g>
    <g id="Group_3862" data-name="Group 3862" transform="translate(247.548 96.125)">
      <path id="Path_5494" data-name="Path 5494" d="M2914.481,2753.045c.024.225.04.441.056.665a10.956,10.956,0,0,1-2.981,8.583,11.368,11.368,0,0,1-4.833,2.6,16.555,16.555,0,0,1-20.739-12.766q-6.6-.193-13.207-.361a26.263,26.263,0,0,1,12.566-11.123,25.8,25.8,0,0,1,11.636-2.083,22.022,22.022,0,0,1,8.679,2.348,16.461,16.461,0,0,1,7.333,7.084A14.484,14.484,0,0,1,2914.481,2753.045Z" transform="translate(-2872.778 -2738.521)" fill="#d2e099"/>
    </g>
    <g id="Group_3863" data-name="Group 3863" transform="translate(233.07 97.852)">
      <path id="Path_5495" data-name="Path 5495" d="M2881.754,2741.076a26.25,26.25,0,0,0-12.565,11.123q-4.809-.12-9.625-.224c-4.263-2.228-5.385-6.82-4.64-11.3C2862.915,2740.811,2872.05,2740.939,2881.754,2741.076Z" transform="translate(-2854.711 -2740.675)" fill="#cbd3dc"/>
    </g>
    <path id="Path_5496" data-name="Path 5496" d="M2835.669,2655.725c-.793-12.453,5.634-24.322,6.972-36.735-2.661-1.314-5.737.7-7.958,2.58q-8.45,7.153-16.893,14.313c-1.948,1.659-4.007,3.366-6.563,3.983a19.615,19.615,0,0,1-6.836-.1,99.4,99.4,0,0,0-29.169.753,12.589,12.589,0,0,1-5.121.232,9.243,9.243,0,0,1-3.71-2.147c-7.765-6.675-12.108-18.151-22.559-19.794a3.571,3.571,0,0,0-2.524.3,3.347,3.347,0,0,0-1.114,2.452,401.428,401.428,0,0,0-2.94,92.75,30.126,30.126,0,0,1,13.8,12.357q28.392.036,56.785.5c1.05-6.948,5.249-12.646,10.843-16.9,5.473-4.167,12.108-6.588,18.864-7.885.224-.433.433-.866.633-1.3a36.608,36.608,0,0,0,3.2-19.377C2840.406,2672.906,2836.23,2664.564,2835.669,2655.725Zm-39.727,45.847a5.407,5.407,0,0,1-2.642.612,7.4,7.4,0,0,1-4.145-1.271c-.011.009-.018.021-.029.03a5.364,5.364,0,0,1-3.618,1.121,17.04,17.04,0,0,1-1.813-.117,1.2,1.2,0,1,1,.257-2.39c1.332.143,2.818.237,3.61-.44.732-.628.728-1.768.639-3.433l-.024-.454a12.456,12.456,0,0,1,.016-1.437c-.491-.616-1.373-1.761-2.155-2.872-1.578-2.238-2.533-3.779-1.463-4.742a2.641,2.641,0,0,1,1.525-.612,21.4,21.4,0,0,1,5.5.1,2.323,2.323,0,0,1,1.181.521c.5.438.955,1.291.2,2.8a11.945,11.945,0,0,1-1.084,1.7,5.425,5.425,0,0,0-1.267,2.82,1.236,1.236,0,0,1-.015.149,9.343,9.343,0,0,0-.033,1.465l.023.436a10.5,10.5,0,0,1-.189,3.3,4.633,4.633,0,0,0,4.34.631,1.2,1.2,0,0,1,1.19,2.089Zm18.547-30.067c0,3.391-3.471,6.14-6.652,6.14s-6.651-4-6.651-6.14c0-3.39,3.471-6.139,6.651-6.139S2814.49,2669.358,2814.49,2671.5Zm-38.433,0c0,3.391-3.47,6.14-6.651,6.14s-6.651-4-6.651-6.14c0-3.39,3.47-6.139,6.651-6.139S2776.057,2669.358,2776.057,2671.5Z" transform="translate(-2598.027 -2618.569)" fill="#d2e099"/>
    <g id="Group_3864" data-name="Group 3864" transform="translate(209.811 83.82)">
      <path id="Path_5497" data-name="Path 5497" d="M2849.16,2737.2c-.745,4.479.377,9.071,4.641,11.3q-14.053-.325-28.112-.545c1.05-6.948,5.249-12.646,10.842-16.9,5.473-4.167,12.108-6.587,18.864-7.885-2.1,4.167-4.792,8.125-5.93,12.589C2849.344,2736.228,2849.24,2736.708,2849.16,2737.2Z" transform="translate(-2825.688 -2723.165)" fill="#98b339"/>
    </g>
    <g id="Group_3865" data-name="Group 3865" transform="translate(110.396 93.933)">
      <path id="Path_5498" data-name="Path 5498" d="M2701.692,2750.113a12.354,12.354,0,0,1,5.089-9.127c.36-.249.721-.489,1.074-.722,8.663-5.609,16.436-5.281,22.606-2.66a30.126,30.126,0,0,1,13.8,12.357q-7.465-.023-14.93,0a12.893,12.893,0,0,1-4.96,11.548c-3.542,2.789-18.3,5.241-21.989-5.537A14.058,14.058,0,0,1,2701.692,2750.113Z" transform="translate(-2701.63 -2735.785)" fill="#d2e099"/>
    </g>
    <g id="Group_3866" data-name="Group 3866" transform="translate(56.534 98.413)">
      <path id="Path_5499" data-name="Path 5499" d="M2634.418,2742.761v-.441c20.3-.705,38.594-.825,60.086-.945-.353.232-.713.473-1.074.721a12.354,12.354,0,0,0-5.089,9.127q-26.974.253-53.924.857Z" transform="translate(-2634.418 -2741.375)" fill="#cbd3dc"/>
    </g>
    <g id="Group_3867" data-name="Group 3867" transform="translate(42.141 99.799)">
      <path id="Path_5500" data-name="Path 5500" d="M2630.851,2743.1v9.32q-4.5.1-8.976.208a12.7,12.7,0,0,0-5.337.914l-.08-.161C2620.256,2750.133,2626.9,2745.942,2630.851,2743.1Z" transform="translate(-2616.458 -2743.105)" fill="#bac4cc"/>
    </g>
  </g>
</svg>
