<svg id="Logo" xmlns="http://www.w3.org/2000/svg" xmlns:xlink="http://www.w3.org/1999/xlink" width="209.001" height="52.402" viewBox="0 0 209.001 52.402">
  <defs>
    <clipPath id="clip-path">
      <path id="_Clipping_Path_" data-name="&lt;Clipping Path&gt;" d="M22.037,79.623c1.716,0,2.271,1.368,5.5,1.239,7.644-.3,16.518-13.162,16.539-25.631.012-7.1-5.281-12.83-11.8-12.853-6.047-.021-6.794,2.18-10.241,2.18s-4.194-2.2-10.241-2.18C5.281,42.4-.012,48.132,0,55.231.021,67.7,8.895,80.557,16.539,80.862,19.766,80.99,20.321,79.623,22.037,79.623Z" transform="translate(0 -42.378)" fill="none"/>
    </clipPath>
  </defs>
  <g id="Calque_1" data-name="Calque 1">
    <g id="Group_2" data-name="Group 2">
      <g id="_Group_" data-name="&lt;Group&gt;">
        <g id="_Clip_Group_" data-name="&lt;Clip Group&gt;" transform="translate(0 13.909)">
          <g id="Group_1" data-name="Group 1" clip-path="url(#clip-path)">
            <g id="_Group_2" data-name="&lt;Group&gt;" transform="translate(-36.116 -52.875)">
              <path id="_Path_" data-name="&lt;Path&gt;" d="M34.747,57.987c0,20.059-18.847,51.84-30.131,51.84s-30.131-31.781-30.131-51.84a30.13,30.13,0,1,1,60.26,0Z" transform="translate(53.256 20.252)" fill="#ec6500"/>
              <path id="_Path_2" data-name="&lt;Path&gt;" d="M-.784,65.862c0,20.059-18.847,51.84-30.131,51.84s-30.131-31.781-30.131-51.84a30.129,30.129,0,0,1,30.13-30.131A30.131,30.131,0,0,1-.785,65.862Z" transform="translate(77.125 14.962)" fill="#ec6500"/>
              <path id="_Path_3" data-name="&lt;Path&gt;" d="M-49.774-88.586c0,20.059-18.847,51.84-30.131,51.84s-30.131-31.781-30.131-51.84A30.131,30.131,0,0,1-79.9-118.717,30.131,30.131,0,0,1-49.774-88.586Z" transform="translate(110.035 118.717)" fill="#ec6500"/>
              <path id="_Path_4" data-name="&lt;Path&gt;" d="M73.358,117.883c0,20.059-18.847,51.84-30.131,51.84S13.1,137.942,13.1,117.883a30.13,30.13,0,1,1,60.26,0Z" transform="translate(27.316 -19.984)" fill="#ec6500"/>
            </g>
            <g id="_Group_3" data-name="&lt;Group&gt;" transform="translate(-20.035 -2.181)">
              <path id="_Path_5" data-name="&lt;Path&gt;" d="M-6.578,55.563c.976,0,1.941.048,2.894.139a30.213,30.213,0,0,0-18.3-15.868C-28.374,55.365-39.4,69.765-46.99,69.765c-3.8,0-8.462-3.61-12.97-9.163a30.154,30.154,0,0,0-1.08,8.016c0,20.059,18.847,51.84,30.131,51.84a9.687,9.687,0,0,0,4.873-1.608c-6.041-10.4-10.669-23.218-10.669-33.157A30.131,30.131,0,0,1-6.579,55.563Z" transform="translate(61.041 -38.488)" fill="#e13505"/>
              <path id="_Path_6" data-name="&lt;Path&gt;" d="M-44.778,67.01c7.594,0,18.616-14.4,25.01-29.931A30.164,30.164,0,0,0-43.15,39.431a30.164,30.164,0,0,0-14.6,18.416C-53.24,63.4-48.579,67.01-44.778,67.01Z" transform="translate(58.829 -35.733)" fill="#d9000d"/>
              <path id="_Path_7" data-name="&lt;Path&gt;" d="M67.958,88.178a30.01,30.01,0,0,1,2.9,12.917c0,17.375-14.14,43.54-25.257,50.233,6.151,10.592,13.768,18.682,19.46,18.682,11.283,0,30.131-31.781,30.131-51.84A30.131,30.131,0,0,0,67.958,88.178Z" transform="translate(-10.601 -70.964)" fill="#e13505"/>
              <path id="_Path_8" data-name="&lt;Path&gt;" d="M49.021,100.81a30.01,30.01,0,0,0-2.9-12.917q-1.428-.136-2.894-.139a30.131,30.131,0,0,0-30.131,30.131c0,9.939,4.628,22.755,10.67,33.158C34.881,144.35,49.021,118.185,49.021,100.81Z" transform="translate(11.239 -70.68)" fill="#d9000d"/>
            </g>
          </g>
        </g>
        <g id="_Group_4" data-name="&lt;Group&gt;" transform="translate(4.562)">
          <path id="_Path_9" data-name="&lt;Path&gt;" d="M24.144,2.582c4.455,3.118,5.889,8.757,5.889,8.757s-5.788.58-10.242-2.539S13.9.043,13.9.043,19.689-.538,24.144,2.582Z" transform="translate(-13.9 0)" fill="#91b508"/>
        </g>
      </g>
      <g id="_Group_5" data-name="&lt;Group&gt;" transform="translate(53.549 23.155)">
        <g id="_Group_6" data-name="&lt;Group&gt;" transform="translate(43.631 4.714)">
          <g id="_Group_7" data-name="&lt;Group&gt;">
            <path id="_Compound_Path_" data-name="&lt;Compound Path&gt;" d="M296.082,90.258a5.35,5.35,0,1,1,10.7,0h-1.367c0-2.569-1.415-3.983-3.983-3.983s-3.983,1.415-3.983,3.983Z" transform="translate(-296.082 -84.908)" fill="#7a93ab"/>
            <rect id="_Path_10" data-name="&lt;Path&gt;" width="1.367" height="5.213" transform="translate(0 5.33)" fill="#7a93ab"/>
            <rect id="_Path_11" data-name="&lt;Path&gt;" width="1.367" height="5.213" transform="translate(9.333 5.33)" fill="#7a93ab"/>
          </g>
        </g>
        <g id="_Group_8" data-name="&lt;Group&gt;">
          <path id="_Compound_Path_2" data-name="&lt;Compound Path&gt;" d="M168.5,95.608a5.35,5.35,0,1,1,5.35-5.35A4.964,4.964,0,0,1,168.5,95.608Zm0-9.333c-2.569,0-3.983,1.415-3.983,3.983s1.415,3.983,3.983,3.983,3.983-1.415,3.983-3.983S171.069,86.275,168.5,86.275Z" transform="translate(-163.15 -80.194)" fill="#7a93ab"/>
          <rect id="_Path_12" data-name="&lt;Path&gt;" width="1.367" height="9.137" transform="translate(0 10.044)" fill="#7a93ab"/>
          <path id="_Compound_Path_3" data-name="&lt;Compound Path&gt;" d="M246.738,95.608a5.35,5.35,0,1,1,5.35-5.35A4.964,4.964,0,0,1,246.738,95.608Zm0-9.333c-2.569,0-3.983,1.415-3.983,3.983s1.415,3.983,3.983,3.983,3.983-1.415,3.983-3.983S249.307,86.275,246.738,86.275Z" transform="translate(-215.709 -80.194)" fill="#7a93ab"/>
          <rect id="_Path_13" data-name="&lt;Path&gt;" width="1.367" height="9.137" transform="translate(25.68 10.044)" fill="#7a93ab"/>
          <g id="_Group_9" data-name="&lt;Group&gt;" transform="translate(43.631 9.405)">
            <rect id="_Path_14" data-name="&lt;Path&gt;" width="1.367" height="5.851" fill="#7a93ab"/>
          </g>
          <g id="_Group_10" data-name="&lt;Group&gt;" transform="translate(12.839)">
            <rect id="_Path_15" data-name="&lt;Path&gt;" width="1.367" height="10.633" transform="translate(0.034 10.747) rotate(-90)" fill="#7a93ab"/>
            <g id="_Group_11" data-name="&lt;Group&gt;" transform="translate(0 4.713)">
              <path id="_Path_16" data-name="&lt;Path&gt;" d="M207.618,94.24c-2.569,0-3.983-1.415-3.983-3.983s1.415-3.983,3.983-3.983,3.983,1.415,3.983,3.983a6.149,6.149,0,0,1-.041.683h1.374c.02-.222.033-.448.033-.683a5.35,5.35,0,1,0-5.35,5.35,5.345,5.345,0,0,0,3.943-1.471l-1.043-.875A4.06,4.06,0,0,1,207.618,94.24Z" transform="translate(-202.267 -84.907)" fill="#7a93ab"/>
            </g>
            <path id="_Path_17" data-name="&lt;Path&gt;" d="M216.159,72.366c-.755.755-2.3,1.606-2.508,1.4s.642-1.752,1.4-2.508c.627-.627,1.383-.886,1.69-.58S216.786,71.739,216.159,72.366Z" transform="translate(-209.893 -70.547)" fill="#7a93ab"/>
          </g>
          <rect id="_Path_18" data-name="&lt;Path&gt;" width="1.367" height="10.387" transform="translate(39.054 4.869)" fill="#7a93ab"/>
          <ellipse id="_Path_19" data-name="&lt;Path&gt;" cx="0.956" cy="0.956" rx="0.956" ry="0.956" transform="translate(38.842 1.335)" fill="#7a93ab"/>
        </g>
        <g id="_Group_12" data-name="&lt;Group&gt;" transform="translate(55.372 0.946)">
          <path id="_Compound_Path_4" data-name="&lt;Compound Path&gt;" d="M337.2,84.908a5.35,5.35,0,1,1-5.35,5.35A4.964,4.964,0,0,1,337.2,84.908Zm0,9.333c2.569,0,3.983-1.415,3.983-3.983s-1.415-3.983-3.983-3.983-3.983,1.415-3.983,3.983,1.415,3.983,3.983,3.983Z" transform="translate(-331.852 -81.14)" fill="#7a93ab"/>
          <rect id="_Path_20" data-name="&lt;Path&gt;" width="1.367" height="9.137" transform="translate(10.7 9.137) rotate(180)" fill="#7a93ab"/>
          <g id="_Group_13" data-name="&lt;Group&gt;" transform="translate(13.107 3.767)">
            <rect id="_Path_21" data-name="&lt;Path&gt;" width="1.367" height="10.633" transform="translate(0.034 6.033) rotate(-90)" fill="#7a93ab"/>
            <g id="_Group_14" data-name="&lt;Group&gt;">
              <path id="_Path_22" data-name="&lt;Path&gt;" d="M377.136,94.24c-2.569,0-3.983-1.415-3.983-3.983s1.415-3.983,3.983-3.983,3.983,1.415,3.983,3.983a6.134,6.134,0,0,1-.04.683h1.374c.02-.222.033-.448.033-.683a5.35,5.35,0,1,0-5.35,5.35,5.345,5.345,0,0,0,3.943-1.471l-1.043-.875A4.06,4.06,0,0,1,377.136,94.24Z" transform="translate(-371.785 -84.907)" fill="#7a93ab"/>
            </g>
          </g>
        </g>
        <g id="_Group_15" data-name="&lt;Group&gt;" transform="translate(81.586 4.713)">
          <path id="_Compound_Path_5" data-name="&lt;Compound Path&gt;" d="M417.07,95.608a5.35,5.35,0,1,1,5.35-5.35A4.964,4.964,0,0,1,417.07,95.608Zm0-9.333c-2.569,0-3.983,1.415-3.983,3.983s1.415,3.983,3.983,3.983,3.983-1.415,3.983-3.983S419.639,86.275,417.07,86.275Z" transform="translate(-411.72 -84.908)" fill="#7a93ab"/>
          <rect id="_Path_23" data-name="&lt;Path&gt;" width="1.367" height="9.137" transform="translate(0 5.33)" fill="#7a93ab"/>
          <path id="_Compound_Path_6" data-name="&lt;Compound Path&gt;" d="M456.189,95.608a5.35,5.35,0,1,1,5.35-5.35A4.964,4.964,0,0,1,456.189,95.608Zm0-9.333c-2.569,0-3.983,1.415-3.983,3.983s1.415,3.983,3.983,3.983,3.983-1.415,3.983-3.983S458.758,86.275,456.189,86.275Z" transform="translate(-437.999 -84.908)" fill="#7a93ab"/>
          <g id="_Group_16" data-name="&lt;Group&gt;" transform="translate(63.165)">
            <rect id="_Path_24" data-name="&lt;Path&gt;" width="1.367" height="10.633" transform="translate(0.034 6.034) rotate(-90)" fill="#7a93ab"/>
            <g id="_Group_17" data-name="&lt;Group&gt;">
              <path id="_Path_25" data-name="&lt;Path&gt;" d="M609.516,94.24c-2.569,0-3.983-1.415-3.983-3.983s1.415-3.983,3.983-3.983,3.983,1.415,3.983,3.983a6.178,6.178,0,0,1-.04.683h1.373c.02-.222.033-.448.033-.683a5.35,5.35,0,1,0-5.35,5.35,5.346,5.346,0,0,0,3.943-1.471l-1.043-.875A4.06,4.06,0,0,1,609.516,94.24Z" transform="translate(-604.165 -84.907)" fill="#7a93ab"/>
            </g>
          </g>
          <rect id="_Path_26" data-name="&lt;Path&gt;" width="1.367" height="6.193" transform="translate(25.947 4.351)" fill="#7a93ab"/>
          <path id="_Path_27" data-name="&lt;Path&gt;" d="M498.058,89.31a2.958,2.958,0,1,0-5.917,0h-1.367a4.325,4.325,0,0,1,8.651,0Z" transform="translate(-464.827 -84.959)" fill="#7a93ab"/>
          <rect id="_Path_28" data-name="&lt;Path&gt;" width="1.367" height="6.193" transform="translate(33.231 4.351)" fill="#7a93ab"/>
          <rect id="_Path_29" data-name="&lt;Path&gt;" width="1.367" height="6.193" transform="translate(33.231 4.351)" fill="#7a93ab"/>
          <path id="_Path_30" data-name="&lt;Path&gt;" d="M520.25,89.31a2.958,2.958,0,1,0-5.917,0h-1.367a4.325,4.325,0,0,1,8.651,0Z" transform="translate(-479.735 -84.959)" fill="#7a93ab"/>
          <rect id="_Path_31" data-name="&lt;Path&gt;" width="1.367" height="6.193" transform="translate(40.515 4.351)" fill="#7a93ab"/>
          <rect id="_Path_32" data-name="&lt;Path&gt;" width="1.367" height="6.193" transform="translate(44.824 4.351)" fill="#7a93ab"/>
          <path id="_Path_33" data-name="&lt;Path&gt;" d="M555.57,89.31a2.958,2.958,0,1,0-5.917,0h-1.367a4.325,4.325,0,1,1,8.651,0Z" transform="translate(-503.463 -84.959)" fill="#7a93ab"/>
          <rect id="_Path_34" data-name="&lt;Path&gt;" width="1.367" height="6.193" transform="translate(52.107 4.351)" fill="#7a93ab"/>
          <rect id="_Path_35" data-name="&lt;Path&gt;" width="1.367" height="6.193" transform="translate(52.107 4.351)" fill="#7a93ab"/>
          <path id="_Path_36" data-name="&lt;Path&gt;" d="M577.761,89.31a2.958,2.958,0,1,0-5.917,0h-1.367a4.325,4.325,0,0,1,8.651,0Z" transform="translate(-518.37 -84.959)" fill="#7a93ab"/>
          <rect id="_Path_37" data-name="&lt;Path&gt;" width="1.367" height="6.193" transform="translate(59.391 4.351)" fill="#7a93ab"/>
        </g>
      </g>
      <path id="_Path_38" data-name="&lt;Path&gt;" d="M61.719,82.849c0,3.768-3.541,9.738-5.66,9.738s-5.66-5.97-5.66-9.738a5.66,5.66,0,0,1,11.32,0Z" transform="translate(-33.858 -51.854)" fill="#fff"/>
    </g>
  </g>
</svg>
