<?xml version="1.0" encoding="utf-8"?>
<!-- Generator: Adobe Illustrator 26.0.1, SVG Export Plug-In . SVG Version: 6.00 Build 0)  -->
<svg version="1.1" id="Layer_1" xmlns="http://www.w3.org/2000/svg" xmlns:xlink="http://www.w3.org/1999/xlink" x="0px" y="0px"
	 viewBox="0 0 24 23" style="enable-background:new 0 0 24 23;" xml:space="preserve">
<style type="text/css">
	.st0{fill:#FFFFFF;}
</style>
<g id="Calque_2">
	<g id="Calque_1-2">
		<circle class="st0" cx="9" cy="21" r="2"/>
		<circle class="st0" cx="20" cy="21" r="2"/>
		<path class="st0" d="M23.8,5.4C23.6,5.1,23.3,5,23,5H6.8L6,0.8C5.9,0.3,5.5,0,5,0H1C0.4,0,0,0.4,0,1s0.4,1,1,1h3.2L5,6.2
			c0,0,0,0,0,0.1l1.7,8.3C7,16,8.2,17,9.6,17h9.8c1.5,0,2.7-1,3-2.4L24,6.2C24.1,5.9,24,5.6,23.8,5.4z M20.4,14.2
			c-0.1,0.5-0.5,0.8-1,0.8H9.7c-0.5,0-0.9-0.3-1-0.8L7.2,7h14.6L20.4,14.2z"/>
		<path class="st0" d="M12.5,11.5H14V13c0,0.3,0.2,0.5,0.5,0.5S15,13.3,15,13v-1.5h1.5c0.3,0,0.5-0.2,0.5-0.5s-0.2-0.5-0.5-0.5H15V9
			c0-0.3-0.2-0.5-0.5-0.5S14,8.7,14,9v1.5h-1.5c-0.3,0-0.5,0.2-0.5,0.5S12.2,11.5,12.5,11.5z"/>
	</g>
</g>
</svg>
