<svg xmlns="http://www.w3.org/2000/svg" viewBox="0 0 22.89 22.93"><g id="Calque_2" data-name="Calque 2"><g id="Calque_1-2" data-name="Calque 1"><path d="M18.9,22.93h-.27a21,21,0,0,1-9.1-3.23,20.8,20.8,0,0,1-6.3-6.3A21,21,0,0,1,0,4.29,3,3,0,0,1,2.73,1H6A3,3,0,0,1,9,3.58a11.91,11.91,0,0,0,.64,2.6A3,3,0,0,1,9,9.34l-.72.72a15,15,0,0,0,4.58,4.59l.72-.72a3,3,0,0,1,3.17-.68,12,12,0,0,0,2.59.65,3,3,0,0,1,2.59,3v3A3,3,0,0,1,18.9,22.93ZM6,3H3A1,1,0,0,0,2,4.09a18.87,18.87,0,0,0,2.92,8.22A18.75,18.75,0,0,0,10.61,18a19,19,0,0,0,8.21,2.92h.08a1,1,0,0,0,1-1v-3a1,1,0,0,0-.86-1,14.2,14.2,0,0,1-3-.75,1,1,0,0,0-1.06.22l-1.27,1.27a1,1,0,0,1-1.2.16A17,17,0,0,1,6.11,10.4a1,1,0,0,1,.16-1.2L7.54,7.93a1,1,0,0,0,.22-1,13.57,13.57,0,0,1-.75-3A1,1,0,0,0,6,3Zm11.87,7a1,1,0,0,1-1-.81A4,4,0,0,0,13.75,6a1,1,0,0,1,.38-2,6,6,0,0,1,4.74,4.74,1,1,0,0,1-.79,1.17Zm4,0a1,1,0,0,1-1-.89A8,8,0,0,0,13.83,2a1,1,0,1,1,.22-2,9.94,9.94,0,0,1,8.83,8.82A1,1,0,0,1,22,9.93Z"/></g></g></svg>