<svg xmlns="http://www.w3.org/2000/svg" width="118.5" height="34.998" viewBox="0 0 118.5 34.998">
  <path id="Fill-3" d="M24.8,17.456A11.04,11.04,0,0,0,20.984,9.1a7.22,7.22,0,0,1,.3,2.083,7.332,7.332,0,0,1-2.749,5.7,11.113,11.113,0,0,1,3.46,2.3l-2.851,1.482a7.81,7.81,0,0,0-4.727-1.633c-3.154,0-5.534,2.008-5.534,4.672,0,2.617,2.333,4.706,5.408,4.776A11,11,0,0,0,24.8,17.456ZM8.658,18A11.128,11.128,0,0,1,5.2,15.7l2.851-1.482a7.8,7.8,0,0,0,4.728,1.634c3.153,0,5.592-2.01,5.532-4.671-.077-3.416-3.38-4.962-5.763-4.69a11.062,11.062,0,0,0-6.454,18.8A7.233,7.233,0,0,1,5.909,23.7,7.334,7.334,0,0,1,8.658,18Zm18.99-.546A13.824,13.824,0,1,1,13.823,3.54,13.87,13.87,0,0,1,27.648,17.456ZM98.022,15.3a4.444,4.444,0,0,0-4.26-3.126A4.616,4.616,0,0,0,89.127,15.3ZM99.7,18.117h-10.7c.334,2.292,1.948,3.8,4.754,3.8,1.615,0,2.719-.307,4.788-2.216l2.518,1.193a8.839,8.839,0,0,1-7.306,3.852c-4.9,0-7.64-3.261-7.64-7.747a7.52,7.52,0,0,1,14.267-3.448,7.007,7.007,0,0,1,.679,2.751A1.53,1.53,0,0,1,99.7,18.117Zm12.344-1.273,6.121-7.338h-3.653l-4.092,4.9a.3.3,0,0,1-.2.122c-.092,0-.142-.064-.206-.131l-4.082-4.9h-3.653l6.118,7.338-6.451,7.738H105.6L110,19.3c.068-.072.123-.145.212-.145a.364.364,0,0,1,.23.148l4.4,5.278H118.5ZM49.12,12.131h0l.006.006ZM42.244,12.1A6.917,6.917,0,0,1,46.5,13.489l2.621-1.358A9.426,9.426,0,0,0,42.244,9.3c-4.9,0-8.514,3.434-8.514,7.671s3.617,7.671,8.514,7.671a9.413,9.413,0,0,0,6.81-2.756l-2.643-1.368a6.927,6.927,0,0,1-4.167,1.332c-3.272,0-5.739-2.1-5.739-4.879S38.972,12.1,42.244,12.1ZM80.9,17.043a4.716,4.716,0,0,0-1.325-3.589,5.376,5.376,0,0,0-3.77-1.278A6.966,6.966,0,0,0,71.394,13.8v6.521a5.829,5.829,0,0,0,4.272,1.593A5.049,5.049,0,0,0,80.9,17.043Zm2.813.16a7.736,7.736,0,0,1-8.35,7.527c-2.842-.115-5.651-1.419-6.535-2.957a2.643,2.643,0,0,1-.251-1.074c0-.022,0-20.7,0-20.7h2.812V10.651A8.02,8.02,0,0,1,75.6,9.385a7.933,7.933,0,0,1,5.867,1.941A7.89,7.89,0,0,1,83.717,17.2ZM62.238,9.5h2.811V35H62.238V24.086a12.715,12.715,0,0,1-3.13.4,6.944,6.944,0,0,1-7.458-7V9.5h2.814l0,7.166a6.131,6.131,0,0,0,1.31,4.052,4.335,4.335,0,0,0,3.319,1.249,9.635,9.635,0,0,0,3.147-.677Z" fill="#29292b"/>
</svg>
