<svg xmlns="http://www.w3.org/2000/svg" xmlns:xlink="http://www.w3.org/1999/xlink" width="44.074" height="52.403" viewBox="0 0 44.074 52.403">
  <defs>
    <clipPath id="clip-path">
      <path id="_Clipping_Path_" data-name="&lt;Clipping Path&gt;" d="M22.037,79.623c1.716,0,2.271,1.368,5.5,1.239,7.644-.3,16.518-13.162,16.539-25.631.012-7.1-5.281-12.83-11.8-12.853-6.047-.021-6.794,2.18-10.241,2.18s-4.194-2.2-10.241-2.18C5.281,42.4-.012,48.132,0,55.231.021,67.7,8.895,80.557,16.539,80.862,19.766,80.99,20.321,79.623,22.037,79.623Z" transform="translate(0 -42.378)" fill="none"/>
    </clipPath>
  </defs>
  <g id="Group_5213" data-name="Group 5213" transform="translate(-123 -379.799)">
    <g id="_Group_" data-name="&lt;Group&gt;" transform="translate(123 379.799)">
      <g id="_Clip_Group_" data-name="&lt;Clip Group&gt;" transform="translate(0 13.909)">
        <g id="Group_1" data-name="Group 1" clip-path="url(#clip-path)">
          <g id="_Group_2" data-name="&lt;Group&gt;" transform="translate(-36.116 -52.875)">
            <path id="_Path_" data-name="&lt;Path&gt;" d="M34.747,57.987c0,20.059-18.847,51.84-30.131,51.84s-30.131-31.781-30.131-51.84a30.13,30.13,0,1,1,60.26,0Z" transform="translate(53.256 20.252)" fill="#ec6500"/>
            <path id="_Path_2" data-name="&lt;Path&gt;" d="M-.784,65.862c0,20.059-18.847,51.84-30.131,51.84s-30.131-31.781-30.131-51.84a30.129,30.129,0,0,1,30.13-30.131A30.131,30.131,0,0,1-.785,65.862Z" transform="translate(77.125 14.962)" fill="#ec6500"/>
            <path id="_Path_3" data-name="&lt;Path&gt;" d="M-49.774-88.586c0,20.059-18.847,51.84-30.131,51.84s-30.131-31.781-30.131-51.84A30.131,30.131,0,0,1-79.9-118.717,30.131,30.131,0,0,1-49.774-88.586Z" transform="translate(110.035 118.717)" fill="#ec6500"/>
            <path id="_Path_4" data-name="&lt;Path&gt;" d="M73.358,117.883c0,20.059-18.847,51.84-30.131,51.84S13.1,137.942,13.1,117.883a30.13,30.13,0,1,1,60.26,0Z" transform="translate(27.316 -19.984)" fill="#ec6500"/>
          </g>
          <g id="_Group_3" data-name="&lt;Group&gt;" transform="translate(-20.035 -2.181)">
            <path id="_Path_5" data-name="&lt;Path&gt;" d="M-6.578,55.563c.976,0,1.941.048,2.894.139a30.213,30.213,0,0,0-18.3-15.868C-28.374,55.365-39.4,69.765-46.99,69.765c-3.8,0-8.462-3.61-12.97-9.163a30.154,30.154,0,0,0-1.08,8.016c0,20.059,18.847,51.84,30.131,51.84a9.687,9.687,0,0,0,4.873-1.608c-6.041-10.4-10.669-23.218-10.669-33.157A30.131,30.131,0,0,1-6.579,55.563Z" transform="translate(61.041 -38.488)" fill="#e13505"/>
            <path id="_Path_6" data-name="&lt;Path&gt;" d="M-44.778,67.01c7.594,0,18.616-14.4,25.01-29.931A30.164,30.164,0,0,0-43.15,39.431a30.164,30.164,0,0,0-14.6,18.416C-53.24,63.4-48.579,67.01-44.778,67.01Z" transform="translate(58.829 -35.733)" fill="#d9000d"/>
            <path id="_Path_7" data-name="&lt;Path&gt;" d="M67.958,88.178a30.01,30.01,0,0,1,2.9,12.917c0,17.375-14.14,43.54-25.257,50.233,6.151,10.592,13.768,18.682,19.46,18.682,11.283,0,30.131-31.781,30.131-51.84A30.131,30.131,0,0,0,67.958,88.178Z" transform="translate(-10.601 -70.964)" fill="#e13505"/>
            <path id="_Path_8" data-name="&lt;Path&gt;" d="M49.021,100.81a30.01,30.01,0,0,0-2.9-12.917q-1.428-.136-2.894-.139a30.131,30.131,0,0,0-30.131,30.131c0,9.939,4.628,22.755,10.67,33.158C34.881,144.35,49.021,118.185,49.021,100.81Z" transform="translate(11.239 -70.68)" fill="#d9000d"/>
          </g>
        </g>
      </g>
      <g id="_Group_4" data-name="&lt;Group&gt;" transform="translate(4.562)">
        <path id="_Path_9" data-name="&lt;Path&gt;" d="M24.144,2.582c4.455,3.118,5.889,8.757,5.889,8.757s-5.788.58-10.242-2.539S13.9.043,13.9.043,19.689-.538,24.144,2.582Z" transform="translate(-13.9 0)" fill="#91b508"/>
      </g>
    </g>
    <path id="_Path_10" data-name="&lt;Path&gt;" d="M61.719,82.849c0,3.768-3.541,9.738-5.66,9.738s-5.66-5.97-5.66-9.738a5.66,5.66,0,0,1,11.32,0Z" transform="translate(89.143 327.945)" fill="#fff"/>
  </g>
</svg>
